<svg width="48" height="41" viewBox="0 0 48 41" fill="none" xmlns="http://www.w3.org/2000/svg">
    <g filter="url(#filter0_b_111_33)">
        <path fill-rule="evenodd" clip-rule="evenodd" d="M47.6417 24.2585L47.5812 24.4777L47.5164 24.6956L47.4475 24.9123L47.3746 25.1276L47.2978 25.3415L47.2173 25.5539L47.1331 25.7649L47.0456 25.9743L46.9547 26.1822L46.8608 26.3884L46.7639 26.5931L46.6642 26.7961L46.5618 26.9975L46.4571 27.1973L46.35 27.3954L46.2407 27.5919L46.1295 27.7867L46.0164 27.98L45.9017 28.1717L45.7854 28.3618L45.6676 28.5503L45.5486 28.7374L45.4285 28.9231L45.3073 29.1073L45.1852 29.2901L45.0622 29.4715L44.9385 29.6517L44.8141 29.8307L44.6891 30.0084L44.5636 30.185L44.4377 30.3605L44.3113 30.535L44.1846 30.7085L44.0576 30.881L43.9302 31.0526L43.8026 31.2233L43.6747 31.3932L43.5466 31.5624L43.4182 31.7308L43.2896 31.8986L43.1607 32.0657L43.0315 32.2322L42.9021 32.3981L42.7724 32.5635L42.6423 32.7284L42.512 32.8929L42.3813 33.0569L42.2502 33.2206L42.1186 33.3838L41.9866 33.5467L41.854 33.7092L41.7207 33.8714L41.5868 34.0331L41.452 34.1945L41.3164 34.3554L41.1797 34.5159L41.042 34.676L40.9031 34.8355L40.7629 34.9944L40.6213 35.1527L40.4783 35.3103L40.3336 35.4671L40.1873 35.6231L40.0391 35.7781L39.8891 35.9321L39.7371 36.0851L39.583 36.2368L39.4268 36.3873L39.2683 36.5363L39.1075 36.6839L38.9444 36.8298L38.7788 36.974L38.6108 37.1164L38.4402 37.2568L38.267 37.3952L38.0913 37.5315L37.913 37.6655L37.732 37.7971L37.5484 37.9262L37.3621 38.0528L37.1733 38.1767L36.9819 38.2978L36.7879 38.4161L36.5913 38.5315L36.3923 38.6439L36.1909 38.7533L35.9871 38.8595L35.781 38.9625L35.5726 39.0623L35.3621 39.1588L35.1495 39.252L34.9349 39.3419L34.7185 39.4285L34.5002 39.5116L34.2801 39.5913L34.0584 39.6676L33.8351 39.7404L33.6104 39.8098L33.3843 39.8757L33.1569 39.9381L32.9283 39.997L32.6986 40.0525L32.468 40.1046L32.2364 40.1533L32.004 40.1985L31.7709 40.2404L31.5371 40.2789L31.3029 40.3141L31.0682 40.3461L30.8331 40.3749L30.5978 40.4005L30.3623 40.4231L30.1268 40.4426L29.8912 40.4591L29.6556 40.4728L29.4202 40.4836L29.185 40.4916L28.95 40.497L28.7154 40.4998L28.4811 40.5L28.2473 40.4978L28.014 40.4932L27.7812 40.4863L27.5489 40.4772L27.3173 40.466L27.0862 40.4527L26.8559 40.4374L26.6262 40.4202L26.3972 40.4012L26.1689 40.3804L25.9414 40.3579L25.7146 40.3337L25.4885 40.308L25.2632 40.2808L25.0386 40.2522L24.8148 40.2221L24.5917 40.1907L24.3693 40.158L24.1477 40.124L23.9267 40.0888L23.7065 40.0524L23.4869 40.0148L23.268 39.976L23.0497 39.9361L22.8321 39.8951L22.6151 39.853L22.3988 39.8097L22.183 39.7654L21.9678 39.7198L21.7532 39.6732L21.5392 39.6254L21.3258 39.5765L21.1129 39.5263L20.9006 39.475L20.6888 39.4224L20.4776 39.3686L20.267 39.3135L20.057 39.257L19.8475 39.1992L19.6387 39.1401L19.4304 39.0795L19.2228 39.0176L19.0158 38.9541L18.8095 38.8891L18.6039 38.8227L18.3989 38.7546L18.1947 38.685L17.9912 38.6138L17.7885 38.541L17.5866 38.4665L17.3855 38.3904L17.1852 38.3126L16.9858 38.2332L16.7873 38.152L16.5897 38.0692L16.393 37.9847L16.1972 37.8985L16.0024 37.8106L15.8085 37.7211L15.6156 37.63L15.4236 37.5372L15.2326 37.4428L15.0426 37.3469L14.8534 37.2495L14.6652 37.1506L14.4778 37.0504L14.2912 36.9487L14.1053 36.8458L13.9202 36.7417L13.7357 36.6363L13.5517 36.5299L13.3683 36.4225L13.1852 36.314L13.0024 36.2046L12.8198 36.0944L12.6373 35.9833L12.4549 35.8715L12.2723 35.759L12.0895 35.6458L11.9063 35.532L11.7227 35.4176L11.5385 35.3027L11.3536 35.1871L11.1679 35.0711L10.9814 34.9545L10.7938 34.8373L10.605 34.7196L10.4151 34.6014L10.2238 34.4825L10.0312 34.3631L9.83709 34.2429L9.64146 34.122L9.44426 34.0003L9.24543 33.8778L9.04496 33.7543L8.84283 33.6298L8.63905 33.5042L8.43362 33.3774L8.22659 33.2492L8.01799 33.1197L7.80791 32.9886L7.59642 32.8558L7.38363 32.7213L7.16966 32.5848L6.95464 32.4464L6.7387 32.3058L6.52203 32.1629L6.30478 32.0177L6.08714 31.87L5.86931 31.7196L5.65151 31.5666L5.43395 31.4107L5.21687 31.252L5.00051 31.0903L4.78514 30.9254L4.571 30.7575L4.35838 30.5863L4.14755 30.4118L3.93879 30.234L3.73241 30.0528L3.52868 29.8682L3.32792 29.6802L3.13042 29.4887L2.93649 29.2938L2.74643 29.0955L2.56053 28.8937L2.3791 28.6885L2.20244 28.48L2.03084 28.2682L1.86458 28.0532L1.70394 27.8349L1.5492 27.6136L1.40061 27.3894L1.25844 27.1622L1.12292 26.9322L0.994277 26.6996L0.872737 26.4644L0.758498 26.2268L0.651751 25.987L0.552667 25.7451L0.461403 25.5012L0.378099 25.2556L0.302877 25.0083L0.23584 24.7596L0.177075 24.5096L0.126648 24.2585L0.0846053 24.0065L0.050972 23.7538L0.0257428 23.5005L0.00888361 23.2468L0.000332447 22.9929L0 22.739L0.00777086 22.4852L0.0235046 22.2317L0.0470372 21.9786L0.078182 21.7262L0.116732 21.4744L0.162459 21.2235L0.215119 20.9736L0.274451 20.7247L0.340178 20.477L0.412011 20.2306L0.489651 19.9854L0.572788 19.7416L0.661104 19.4992L0.754278 19.2582L0.85198 19.0187L0.953884 18.7806L1.05966 18.5439L1.16898 18.3087L1.28152 18.0748L1.39696 17.8422L1.51499 17.611L1.63531 17.3809L1.75763 17.1519L1.88165 16.924L2.00712 16.697L2.13379 16.4709L2.26142 16.2454L2.38978 16.0206L2.51869 15.7963L2.64797 15.5724L2.77745 15.3487L2.907 15.1251L3.03652 14.9015L3.1659 14.6779L3.2951 14.454L3.42406 14.2298L3.55278 14.0051L3.68127 13.78L3.80957 13.5543L3.93773 13.3279L4.06582 13.1007L4.19394 12.8728L4.32217 12.6441L4.45064 12.4145L4.57946 12.184L4.70875 11.9526L4.83867 11.7203L4.96936 11.487L5.10098 11.2529L5.23369 11.0178L5.36767 10.7819L5.50308 10.5452L5.64012 10.3077L5.77896 10.0695L5.91979 9.83075L6.06281 9.59142L6.20819 9.35165L6.35613 9.11155L6.50681 8.87124L6.66043 8.63084L6.81715 8.39049L6.97717 8.15034L7.14065 7.91053L7.30777 7.67124L7.47868 7.43264L7.65354 7.1949L7.83249 6.9582L8.01569 6.72274L8.20324 6.48871L8.39529 6.25632L8.59193 6.02577L8.79326 5.79726L8.99938 5.57101L9.21035 5.34724L9.42626 5.12615L9.64714 4.90797L9.87304 4.69291L10.104 4.48119L10.34 4.27301L10.5811 4.0686L10.8272 3.86816L11.0784 3.6719L11.3345 3.48001L11.5957 3.29271L11.8617 3.11017L12.1325 2.93259L12.4081 2.76015L12.6884 2.59303L12.9732 2.4314L13.2624 2.27543L13.556 2.12527L13.8538 1.98108L14.1556 1.84299L14.4613 1.71114L14.7708 1.58566L15.0838 1.46665L15.4003 1.35424L15.72 1.24852L16.0428 1.14957L16.3684 1.05747L16.6966 0.972292L17.0274 0.894089L17.3604 0.822908L17.6954 0.758785L18.0323 0.701744L18.3708 0.651802L18.7107 0.608962L19.0519 0.573217L19.394 0.544551L19.7369 0.522937L20.0804 0.50834L20.4242 0.500713L20.7681 0.5L21.112 0.506138L21.4556 0.519053L21.7987 0.538665L22.1411 0.564885L22.4827 0.597617L22.8232 0.636757L23.1625 0.682198L23.5004 0.733823L23.8366 0.791514L24.1711 0.855145L24.5037 0.92459L24.8343 0.999714L25.1626 1.08039L25.4885 1.16647L25.812 1.25782L26.1328 1.3543L26.4509 1.45576L26.7661 1.56203L27.0784 1.67296L27.3876 1.78838L27.6936 1.9081L27.9964 2.03195L28.2959 2.15973L28.592 2.29127L28.8847 2.42635L29.174 2.56479L29.4597 2.70639L29.7419 2.85093L30.0205 2.99823L30.2956 3.14807L30.5672 3.30025L30.8352 3.45457L31.0997 3.61082L31.3607 3.76881L31.6183 3.92834L31.8726 4.08922L32.1235 4.25125L32.3711 4.41425L32.6156 4.57805L32.857 4.74247L33.0953 4.90734L33.3308 5.07251L33.5634 5.23783L33.7934 5.40315L34.0208 5.56833L34.2456 5.73327L34.4681 5.89783L34.6884 6.06192L34.9066 6.22544L35.1227 6.38832L35.337 6.55046L35.5495 6.71183L35.7604 6.87236L35.9698 7.03202L36.1777 7.19079L36.3843 7.34864L36.5898 7.50557L36.7941 7.66159L36.9974 7.81673L37.1998 7.971L37.4013 8.12444L37.6021 8.27708L37.8021 8.42896L38.0016 8.58012L38.2005 8.7306L38.3989 8.88045L38.5969 9.02973L38.7946 9.17848L38.9919 9.32677L39.189 9.47466L39.3858 9.62223L39.5824 9.76955L39.7789 9.9167L39.9751 10.0638L40.1713 10.2108L40.3672 10.358L40.563 10.5053L40.7585 10.6529L40.9538 10.8009L41.1489 10.9494L41.3436 11.0985L41.5378 11.2483L41.7317 11.399L41.9249 11.5505L42.1175 11.7031L42.3093 11.8568L42.5003 12.0117L42.6902 12.168L42.8791 12.3257L43.0667 12.485L43.2528 12.6459L43.4375 12.8085L43.6204 12.9729L43.8015 13.1392L43.9805 13.3075L44.1574 13.4777L44.3319 13.65L44.504 13.8244L44.6733 14.0009L44.8399 14.1796L45.0035 14.3604L45.164 14.5435L45.3213 14.7288L45.4752 14.9162L45.6256 15.1058L45.7724 15.2976L45.9154 15.4915L46.0546 15.6875L46.1898 15.8856L46.3209 16.0857L46.4477 16.2878L46.5702 16.4919L46.6883 16.6979L46.8018 16.9057L46.9106 17.1153L47.0147 17.3267L47.1139 17.5397L47.2081 17.7543L47.2973 17.9704L47.3814 18.1879L47.4604 18.4068L47.5341 18.6269L47.6025 18.8483L47.6655 19.0707L47.7232 19.2941L47.7754 19.5184L47.8222 19.7435L47.8635 19.9693L47.8994 20.1957L47.9298 20.4226L47.9547 20.6498L47.9741 20.8774L47.9882 21.1052L47.9968 21.333L48 21.5608L47.9979 21.7885L47.9905 22.016L47.9779 22.2432L47.9602 22.47L47.9373 22.6962L47.9094 22.9219L47.8766 23.1468L47.839 23.371L47.7966 23.5944L47.7495 23.8168L47.6978 24.0382L47.6417 24.2585Z" fill="#EFE2D2" />
    </g>
    <path d="M32.5455 14.8038C32.8216 13.9586 32.9163 13.0646 32.8234 12.1803C32.7305 11.296 32.452 10.4412 32.0062 9.67189C31.9486 9.57207 31.8657 9.48918 31.7659 9.43158C31.666 9.37398 31.5528 9.34369 31.4375 9.34377C30.4337 9.34154 29.4439 9.57848 28.5499 10.035C27.656 10.4915 26.8836 11.1544 26.2969 11.9688H23.4531C22.8664 11.1544 22.094 10.4915 21.2001 10.035C20.3061 9.57848 19.3163 9.34154 18.3125 9.34377C18.1972 9.34369 18.084 9.37398 17.9841 9.43158C17.8843 9.48918 17.8014 9.57207 17.7438 9.67189C17.298 10.4412 17.0195 11.296 16.9266 12.1803C16.8337 13.0646 16.9284 13.9586 17.2045 14.8038C16.6508 15.7333 16.3538 16.7931 16.3438 17.875V18.75C16.3457 20.2485 16.9165 21.6904 17.9408 22.7842C18.9651 23.8779 20.3665 24.542 21.8617 24.642C21.1276 25.4124 20.7183 26.4359 20.7188 27.5V28.5938H17.875C17.1208 28.5938 16.3975 28.2942 15.8642 27.7609C15.3309 27.2275 15.0312 26.5042 15.0312 25.75C15.0312 24.6477 14.5934 23.5906 13.8139 22.8111C13.0345 22.0317 11.9773 21.5938 10.875 21.5938C10.701 21.5938 10.534 21.6629 10.411 21.786C10.2879 21.909 10.2188 22.076 10.2188 22.25C10.2188 22.4241 10.2879 22.591 10.411 22.7141C10.534 22.8371 10.701 22.9063 10.875 22.9063C11.6292 22.9063 12.3525 23.2059 12.8858 23.7392C13.4191 24.2725 13.7188 24.9958 13.7188 25.75C13.7188 26.8523 14.1566 27.9095 14.9361 28.6889C15.7155 29.4684 16.7727 29.9063 17.875 29.9063H20.7188V31.875C20.7188 32.0491 20.7879 32.216 20.911 32.3391C21.034 32.4621 21.201 32.5313 21.375 32.5313C21.549 32.5313 21.716 32.4621 21.839 32.3391C21.9621 32.216 22.0312 32.0491 22.0312 31.875V27.5C22.0312 26.7458 22.3309 26.0225 22.8642 25.4892C23.3975 24.9559 24.1208 24.6563 24.875 24.6563C25.6292 24.6563 26.3525 24.9559 26.8858 25.4892C27.4191 26.0225 27.7188 26.7458 27.7188 27.5V31.875C27.7188 32.0491 27.7879 32.216 27.911 32.3391C28.034 32.4621 28.201 32.5313 28.375 32.5313C28.549 32.5313 28.716 32.4621 28.839 32.3391C28.9621 32.216 29.0312 32.0491 29.0312 31.875V27.5C29.0317 26.4359 28.6224 25.4124 27.8883 24.642C29.3835 24.542 30.7849 23.8779 31.8092 22.7842C32.8335 21.6904 33.4043 20.2485 33.4062 18.75V17.875C33.3962 16.7931 33.0992 15.7333 32.5455 14.8038ZM32.0938 18.75C32.0938 19.9684 31.6098 21.1368 30.7483 21.9983C29.8868 22.8598 28.7183 23.3438 27.5 23.3438H22.25C21.0317 23.3438 19.8632 22.8598 19.0017 21.9983C18.1402 21.1368 17.6562 19.9684 17.6562 18.75V17.875C17.6677 16.9525 17.9449 16.0529 18.4547 15.2839C18.5217 15.195 18.5649 15.0906 18.5804 14.9804C18.5959 14.8702 18.5831 14.7578 18.5433 14.6539C18.2956 14.0145 18.1818 13.3311 18.2087 12.646C18.2356 11.9608 18.4027 11.2885 18.6997 10.6705C19.4772 10.7291 20.2303 10.9683 20.8991 11.3689C21.568 11.7695 22.1343 12.3206 22.553 12.9783C22.6123 13.0712 22.6942 13.1477 22.7909 13.2007C22.8876 13.2536 22.9961 13.2813 23.1064 13.2813H26.6436C26.7538 13.2814 26.8622 13.2539 26.9589 13.2011C27.0557 13.1484 27.1375 13.0721 27.197 12.9794C27.6154 12.3213 28.1816 11.77 28.8506 11.3691C29.5195 10.9683 30.2727 10.7291 31.0503 10.6705C31.3473 11.2885 31.5144 11.9608 31.5413 12.646C31.5682 13.3311 31.4544 14.0145 31.2067 14.6539C31.1669 14.7574 31.154 14.8692 31.1691 14.9789C31.1842 15.0887 31.2269 15.1929 31.2931 15.2817C31.8045 16.0509 32.0826 16.9515 32.0938 17.875V18.75Z" fill="black" />
    <defs>
        <filter id="filter0_b_111_33" x="-4" y="-3.5" width="56" height="48" filterUnits="userSpaceOnUse" color-interpolation-filters="sRGB">
            <feFlood flood-opacity="0" result="BackgroundImageFix" />
            <feGaussianBlur in="BackgroundImageFix" stdDeviation="2" />
            <feComposite in2="SourceAlpha" operator="in" result="effect1_backgroundBlur_111_33" />
            <feBlend mode="normal" in="SourceGraphic" in2="effect1_backgroundBlur_111_33" result="shape" />
        </filter>
    </defs>
</svg>