<svg width="430" height="932" viewBox="0 0 430 932" fill="none" xmlns="http://www.w3.org/2000/svg">
<g clip-path="url(#clip0_1451_18220)">
<rect width="430" height="932" fill="#FFFDFD"/>
<path d="M28.751 27.0127V37H27.1035V28.9678L24.6631 29.7949V28.4346L28.5527 27.0127H28.751ZM38.0033 35.6875V37H31.3314V35.8721L34.5716 32.3379C34.9271 31.9368 35.2074 31.5905 35.4125 31.2988C35.6175 31.0072 35.7611 30.7451 35.8431 30.5127C35.9297 30.2757 35.973 30.0456 35.973 29.8223C35.973 29.5078 35.9138 29.2321 35.7953 28.9951C35.6813 28.7536 35.5127 28.5645 35.2894 28.4277C35.0661 28.2865 34.7949 28.2158 34.4759 28.2158C34.1068 28.2158 33.7969 28.2956 33.5462 28.4551C33.2956 28.6146 33.1065 28.8356 32.9789 29.1182C32.8513 29.3962 32.7875 29.7152 32.7875 30.0752H31.14C31.14 29.4964 31.2722 28.9678 31.5365 28.4893C31.8008 28.0062 32.1836 27.6234 32.6849 27.3408C33.1862 27.0537 33.7901 26.9102 34.4964 26.9102C35.1618 26.9102 35.7269 27.0218 36.1918 27.2451C36.6566 27.4684 37.0098 27.7852 37.2513 28.1953C37.4974 28.6055 37.6205 29.0908 37.6205 29.6514C37.6205 29.9613 37.5703 30.2689 37.4701 30.5742C37.3698 30.8796 37.2263 31.1849 37.0394 31.4902C36.8571 31.791 36.6407 32.0941 36.39 32.3994C36.1393 32.7002 35.8636 33.0055 35.5629 33.3154L33.4095 35.6875H38.0033ZM39.5446 36.1797C39.5446 35.9245 39.6312 35.7103 39.8044 35.5371C39.9776 35.3594 40.2123 35.2705 40.5085 35.2705C40.8093 35.2705 41.044 35.3594 41.2126 35.5371C41.3858 35.7103 41.4724 35.9245 41.4724 36.1797C41.4724 36.4349 41.3858 36.6491 41.2126 36.8223C41.044 36.9954 40.8093 37.082 40.5085 37.082C40.2123 37.082 39.9776 36.9954 39.8044 36.8223C39.6312 36.6491 39.5446 36.4349 39.5446 36.1797ZM39.5515 30.3555C39.5515 30.1003 39.6381 29.8861 39.8112 29.7129C39.9844 29.5352 40.2191 29.4463 40.5154 29.4463C40.8161 29.4463 41.0508 29.5352 41.2195 29.7129C41.3926 29.8861 41.4792 30.1003 41.4792 30.3555C41.4792 30.6107 41.3926 30.8249 41.2195 30.998C41.0508 31.1712 40.8161 31.2578 40.5154 31.2578C40.2191 31.2578 39.9844 31.1712 39.8112 30.998C39.6381 30.8249 39.5515 30.6107 39.5515 30.3555ZM49.8839 31.1895V32.8164C49.8839 33.5957 49.8064 34.2611 49.6514 34.8125C49.5011 35.3594 49.2823 35.8037 48.9952 36.1455C48.7081 36.4873 48.364 36.738 47.963 36.8975C47.5665 37.057 47.1221 37.1367 46.63 37.1367C46.238 37.1367 45.8735 37.0866 45.5362 36.9863C45.2035 36.8861 44.9027 36.7288 44.6339 36.5146C44.365 36.3005 44.1348 36.0247 43.9434 35.6875C43.7566 35.3457 43.6108 34.9378 43.5059 34.4639C43.4057 33.9899 43.3555 33.4408 43.3555 32.8164V31.1895C43.3555 30.4056 43.433 29.7448 43.588 29.207C43.7429 28.6647 43.9639 28.2249 44.2511 27.8877C44.5382 27.5459 44.88 27.2975 45.2764 27.1426C45.6775 26.9876 46.1241 26.9102 46.6163 26.9102C47.0128 26.9102 47.3774 26.9603 47.71 27.0605C48.0473 27.1562 48.3481 27.3089 48.6124 27.5186C48.8813 27.7282 49.1091 28.0016 49.296 28.3389C49.4874 28.6715 49.6332 29.0749 49.7335 29.5488C49.8337 30.0182 49.8839 30.5651 49.8839 31.1895ZM48.2364 33.0488V30.9434C48.2364 30.5469 48.2136 30.1982 48.168 29.8975C48.1225 29.5921 48.0541 29.3346 47.963 29.125C47.8764 28.9108 47.767 28.7376 47.6348 28.6055C47.5027 28.4688 47.3523 28.3708 47.1837 28.3115C47.0151 28.2477 46.8259 28.2158 46.6163 28.2158C46.3611 28.2158 46.1332 28.266 45.9327 28.3662C45.7322 28.4619 45.5636 28.6169 45.4268 28.8311C45.2901 29.0452 45.1853 29.3278 45.1124 29.6787C45.044 30.0251 45.0098 30.4466 45.0098 30.9434V33.0488C45.0098 33.4499 45.0326 33.8031 45.0782 34.1084C45.1238 34.4137 45.1921 34.6758 45.2833 34.8945C45.3744 35.1087 45.4838 35.2865 45.6114 35.4277C45.7436 35.5645 45.894 35.6647 46.0626 35.7285C46.2358 35.7923 46.4249 35.8242 46.63 35.8242C46.8897 35.8242 47.1199 35.7741 47.3204 35.6738C47.5209 35.5736 47.6895 35.4141 47.8263 35.1953C47.963 34.972 48.0655 34.6826 48.1339 34.3271C48.2022 33.9717 48.2364 33.5456 48.2364 33.0488ZM58.2543 31.1895V32.8164C58.2543 33.5957 58.1769 34.2611 58.0219 34.8125C57.8715 35.3594 57.6528 35.8037 57.3657 36.1455C57.0786 36.4873 56.7345 36.738 56.3334 36.8975C55.937 37.057 55.4926 37.1367 55.0004 37.1367C54.6085 37.1367 54.2439 37.0866 53.9067 36.9863C53.574 36.8861 53.2732 36.7288 53.0043 36.5146C52.7355 36.3005 52.5053 36.0247 52.3139 35.6875C52.1271 35.3457 51.9812 34.9378 51.8764 34.4639C51.7761 33.9899 51.726 33.4408 51.726 32.8164V31.1895C51.726 30.4056 51.8035 29.7448 51.9584 29.207C52.1134 28.6647 52.3344 28.2249 52.6215 27.8877C52.9086 27.5459 53.2504 27.2975 53.6469 27.1426C54.048 26.9876 54.4946 26.9102 54.9868 26.9102C55.3832 26.9102 55.7478 26.9603 56.0805 27.0605C56.4177 27.1562 56.7185 27.3089 56.9829 27.5186C57.2517 27.7282 57.4796 28.0016 57.6664 28.3389C57.8579 28.6715 58.0037 29.0749 58.1039 29.5488C58.2042 30.0182 58.2543 30.5651 58.2543 31.1895ZM56.6069 33.0488V30.9434C56.6069 30.5469 56.5841 30.1982 56.5385 29.8975C56.4929 29.5921 56.4246 29.3346 56.3334 29.125C56.2468 28.9108 56.1375 28.7376 56.0053 28.6055C55.8732 28.4688 55.7228 28.3708 55.5541 28.3115C55.3855 28.2477 55.1964 28.2158 54.9868 28.2158C54.7315 28.2158 54.5037 28.266 54.3032 28.3662C54.1026 28.4619 53.934 28.6169 53.7973 28.8311C53.6606 29.0452 53.5558 29.3278 53.4829 29.6787C53.4145 30.0251 53.3803 30.4466 53.3803 30.9434V33.0488C53.3803 33.4499 53.4031 33.8031 53.4487 34.1084C53.4942 34.4137 53.5626 34.6758 53.6537 34.8945C53.7449 35.1087 53.8543 35.2865 53.9819 35.4277C54.114 35.5645 54.2644 35.6647 54.433 35.7285C54.6062 35.7923 54.7954 35.8242 55.0004 35.8242C55.2602 35.8242 55.4903 35.7741 55.6909 35.6738C55.8914 35.5736 56.06 35.4141 56.1967 35.1953C56.3334 34.972 56.436 34.6826 56.5043 34.3271C56.5727 33.9717 56.6069 33.5456 56.6069 33.0488Z" fill="#1F1F1F"/>
<path opacity="0.1" d="M368.5 26.4165C365.1 26.4165 362.125 27.904 360 30.2415L368.5 40.5832L377 30.2415C374.875 27.904 371.9 26.4165 368.5 26.4165Z" fill="#1F1F1F"/>
<path d="M391.583 26.4165L377.416 40.5832H391.583V26.4165Z" fill="#1F1F1F"/>
<path d="M403.5 26H400.5V27.5H399C398.448 27.5 398 28.0037 398 28.625V39.875C398 40.4963 398.448 41 399 41H405C405.552 41 406 40.4963 406 39.875V28.625C406 28.0037 405.552 27.5 405 27.5H403.5V26Z" fill="#1F1F1F" fill-opacity="0.3"/>
<path d="M398 34C398 34.5833 398 39.3667 398 39.95C398 40.5299 398.448 41 399 41H405C405.552 41 406 40.5299 406 39.95C406 39.3667 406 34.5833 406 34H398Z" fill="#1F1F1F"/>
<path d="M43.3604 116H38.4854V107.672H31.2871V116H26.4121V97.0967H31.2871V104.016H38.4854V97.0967H43.3604V116ZM61.9844 109.716H51.5234C51.5911 110.833 52.0143 111.688 52.793 112.28C53.5801 112.873 54.7354 113.169 56.2588 113.169C57.2236 113.169 58.1589 112.995 59.0645 112.648C59.9701 112.301 60.6852 111.929 61.21 111.531H61.7178V115.2C60.6852 115.615 59.7119 115.915 58.7979 116.102C57.8838 116.288 56.8724 116.381 55.7637 116.381C52.903 116.381 50.7109 115.738 49.1875 114.451C47.6641 113.165 46.9023 111.332 46.9023 108.954C46.9023 106.601 47.6217 104.739 49.0605 103.368C50.5078 101.989 52.4883 101.299 55.002 101.299C57.321 101.299 59.0645 101.887 60.2324 103.063C61.4004 104.231 61.9844 105.916 61.9844 108.116V109.716ZM57.4395 107.037C57.4141 106.081 57.1771 105.361 56.7285 104.879C56.2799 104.396 55.5817 104.155 54.6338 104.155C53.7536 104.155 53.0299 104.384 52.4629 104.841C51.8958 105.298 51.5785 106.03 51.5107 107.037H57.4395ZM69.7793 116H65.209V96.2461H69.7793V116ZM78.666 116H74.0957V96.2461H78.666V116ZM97.5566 108.878C97.5566 111.222 96.8711 113.072 95.5 114.426C94.1374 115.771 92.2204 116.444 89.749 116.444C87.2777 116.444 85.3564 115.771 83.9854 114.426C82.6227 113.072 81.9414 111.222 81.9414 108.878C81.9414 106.517 82.627 104.663 83.998 103.317C85.3776 101.972 87.2946 101.299 89.749 101.299C92.2373 101.299 94.1585 101.976 95.5127 103.33C96.8753 104.684 97.5566 106.534 97.5566 108.878ZM91.9326 112.344C92.2288 111.98 92.4489 111.544 92.5928 111.036C92.7451 110.52 92.8213 109.809 92.8213 108.903C92.8213 108.065 92.7451 107.363 92.5928 106.796C92.4404 106.229 92.2288 105.776 91.958 105.438C91.6872 105.09 91.3613 104.845 90.9805 104.701C90.5996 104.557 90.1891 104.485 89.749 104.485C89.3089 104.485 88.9154 104.545 88.5684 104.663C88.2298 104.782 87.904 105.019 87.5908 105.374C87.3115 105.704 87.0872 106.157 86.918 106.732C86.7572 107.308 86.6768 108.032 86.6768 108.903C86.6768 109.682 86.7487 110.359 86.8926 110.935C87.0365 111.502 87.248 111.959 87.5273 112.306C87.7982 112.636 88.1198 112.877 88.4922 113.029C88.873 113.182 89.3047 113.258 89.7871 113.258C90.2018 113.258 90.5954 113.19 90.9678 113.055C91.3486 112.911 91.6702 112.674 91.9326 112.344Z" fill="#1F1F1F"/>
<path d="M127.835 106.567C127.835 108.328 127.433 109.906 126.629 111.303C125.825 112.691 124.809 113.757 123.582 114.502C122.66 115.061 121.648 115.45 120.548 115.67C119.448 115.89 118.144 116 116.638 116H109.973V97.0967H116.828C118.368 97.0967 119.697 97.2279 120.814 97.4902C121.932 97.7441 122.871 98.1081 123.633 98.582C124.936 99.3776 125.96 100.452 126.705 101.807C127.458 103.152 127.835 104.739 127.835 106.567ZM122.795 106.529C122.795 105.285 122.566 104.223 122.109 103.343C121.661 102.454 120.946 101.76 119.964 101.261C119.465 101.015 118.952 100.85 118.428 100.766C117.911 100.673 117.129 100.626 116.079 100.626H114.848V112.458H116.079C117.239 112.458 118.089 112.407 118.631 112.306C119.173 112.196 119.701 112.001 120.218 111.722C121.106 111.214 121.758 110.537 122.173 109.69C122.588 108.836 122.795 107.782 122.795 106.529ZM139.934 112.28V109.31C139.316 109.36 138.647 109.432 137.928 109.525C137.208 109.61 136.662 109.712 136.29 109.83C135.833 109.974 135.482 110.186 135.236 110.465C134.999 110.736 134.881 111.095 134.881 111.544C134.881 111.84 134.906 112.081 134.957 112.268C135.008 112.454 135.135 112.632 135.338 112.801C135.533 112.97 135.765 113.097 136.036 113.182C136.307 113.258 136.73 113.296 137.306 113.296C137.763 113.296 138.224 113.203 138.689 113.017C139.163 112.83 139.578 112.585 139.934 112.28ZM139.934 114.489C139.688 114.675 139.383 114.9 139.02 115.162C138.656 115.424 138.313 115.632 137.991 115.784C137.543 115.987 137.077 116.135 136.595 116.229C136.112 116.33 135.583 116.381 135.008 116.381C133.654 116.381 132.52 115.962 131.605 115.124C130.691 114.286 130.234 113.215 130.234 111.912C130.234 110.871 130.467 110.021 130.933 109.36C131.398 108.7 132.058 108.18 132.913 107.799C133.759 107.418 134.809 107.147 136.062 106.986C137.314 106.826 138.613 106.707 139.959 106.631V106.555C139.959 105.768 139.637 105.226 138.994 104.93C138.351 104.625 137.403 104.473 136.15 104.473C135.397 104.473 134.593 104.608 133.738 104.879C132.883 105.141 132.27 105.344 131.897 105.488H131.479V102.048C131.961 101.921 132.744 101.773 133.827 101.604C134.919 101.426 136.011 101.337 137.103 101.337C139.701 101.337 141.576 101.739 142.727 102.543C143.886 103.339 144.466 104.591 144.466 106.301V116H139.934V114.489ZM162.988 116H158.393V108.929C158.393 108.353 158.363 107.782 158.304 107.215C158.244 106.639 158.143 106.216 157.999 105.945C157.83 105.632 157.58 105.404 157.25 105.26C156.928 105.116 156.476 105.044 155.892 105.044C155.477 105.044 155.054 105.112 154.622 105.247C154.199 105.382 153.738 105.598 153.238 105.895V116H148.668V101.743H153.238V103.317C154.051 102.683 154.829 102.196 155.574 101.857C156.327 101.519 157.161 101.35 158.075 101.35C159.616 101.35 160.817 101.798 161.681 102.695C162.552 103.592 162.988 104.934 162.988 106.72V116ZM171.773 116H167.203V101.743H171.773V116ZM171.9 99.7119H167.076V96.2461H171.9V99.7119ZM190.131 109.716H179.67C179.738 110.833 180.161 111.688 180.939 112.28C181.727 112.873 182.882 113.169 184.405 113.169C185.37 113.169 186.305 112.995 187.211 112.648C188.117 112.301 188.832 111.929 189.356 111.531H189.864V115.2C188.832 115.615 187.858 115.915 186.944 116.102C186.03 116.288 185.019 116.381 183.91 116.381C181.049 116.381 178.857 115.738 177.334 114.451C175.811 113.165 175.049 111.332 175.049 108.954C175.049 106.601 175.768 104.739 177.207 103.368C178.654 101.989 180.635 101.299 183.148 101.299C185.467 101.299 187.211 101.887 188.379 103.063C189.547 104.231 190.131 105.916 190.131 108.116V109.716ZM185.586 107.037C185.561 106.081 185.324 105.361 184.875 104.879C184.426 104.396 183.728 104.155 182.78 104.155C181.9 104.155 181.176 104.384 180.609 104.841C180.042 105.298 179.725 106.03 179.657 107.037H185.586ZM197.926 116H193.355V96.2461H197.926V116Z" fill="#C84C2D"/>
<path d="M353.136 113H343.67V99.9131H353.136V102.444H347.027V104.703H352.696V107.234H347.027V110.469H353.136V113ZM365.396 113H362.232V111.972C361.688 112.417 361.178 112.745 360.703 112.956C360.229 113.167 359.681 113.272 359.06 113.272C357.858 113.272 356.897 112.81 356.177 111.884C355.456 110.958 355.096 109.71 355.096 108.14C355.096 107.302 355.216 106.561 355.456 105.916C355.702 105.266 356.036 104.709 356.458 104.246C356.856 103.807 357.34 103.467 357.908 103.227C358.477 102.98 359.045 102.857 359.613 102.857C360.205 102.857 360.688 102.922 361.063 103.051C361.444 103.174 361.834 103.332 362.232 103.525V99.3242H365.396V113ZM362.232 110.275V105.433C362.01 105.339 361.775 105.271 361.529 105.23C361.283 105.189 361.058 105.169 360.853 105.169C360.021 105.169 359.396 105.43 358.98 105.951C358.564 106.467 358.356 107.185 358.356 108.104C358.356 109.071 358.523 109.774 358.857 110.214C359.191 110.647 359.728 110.864 360.466 110.864C360.753 110.864 361.058 110.812 361.38 110.706C361.702 110.595 361.986 110.451 362.232 110.275ZM371.549 113H368.385V103.13H371.549V113ZM371.637 101.724H368.297V99.3242H371.637V101.724ZM380.848 112.912C380.508 113 380.147 113.067 379.767 113.114C379.386 113.167 378.92 113.193 378.369 113.193C377.139 113.193 376.222 112.944 375.618 112.446C375.021 111.948 374.722 111.096 374.722 109.889V105.274H373.421V103.13H374.722V100.309H377.886V103.13H380.848V105.274H377.886V108.772C377.886 109.118 377.889 109.42 377.895 109.678C377.9 109.936 377.947 110.167 378.035 110.372C378.117 110.577 378.261 110.741 378.466 110.864C378.677 110.981 378.981 111.04 379.38 111.04C379.544 111.04 379.758 111.005 380.021 110.935C380.291 110.864 380.479 110.8 380.584 110.741H380.848V112.912Z" fill="#1F1F1F"/>
<path d="M342 115.145H381.243V116.999H342V115.145Z" fill="#1F1F1F"/>
<g filter="url(#filter0_d_1451_18220)">
<rect x="24" y="167" width="382" height="153" rx="20" fill="#F0AF9E" shape-rendering="crispEdges"/>
<path d="M62.1953 218H50.1338V201.278H54.4463V214.766H62.1953V218ZM76.9971 212.441H67.7432C67.8031 213.429 68.1774 214.185 68.8662 214.709C69.5625 215.234 70.5845 215.496 71.9321 215.496C72.7856 215.496 73.613 215.342 74.4141 215.035C75.2152 214.728 75.8478 214.399 76.312 214.047H76.7612V217.292C75.8478 217.659 74.9868 217.925 74.1782 218.09C73.3696 218.255 72.4749 218.337 71.4941 218.337C68.9635 218.337 67.0244 217.768 65.6768 216.63C64.3291 215.492 63.6553 213.871 63.6553 211.767C63.6553 209.686 64.2917 208.039 65.5645 206.826C66.8447 205.605 68.5967 204.995 70.8203 204.995C72.8717 204.995 74.4141 205.515 75.4473 206.556C76.4805 207.589 76.9971 209.079 76.9971 211.026V212.441ZM72.9766 210.071C72.9541 209.225 72.7445 208.589 72.3477 208.162C71.9508 207.735 71.3332 207.522 70.4946 207.522C69.716 207.522 69.0758 207.724 68.5742 208.128C68.0726 208.533 67.7918 209.18 67.7319 210.071H72.9766ZM87.9131 217.888C87.4788 218 87.0184 218.086 86.5317 218.146C86.0451 218.213 85.4499 218.247 84.7461 218.247C83.1738 218.247 82.0021 217.929 81.231 217.292C80.4673 216.656 80.0854 215.567 80.0854 214.024V208.128H78.4233V205.388H80.0854V201.783H84.1284V205.388H87.9131V208.128H84.1284V212.598C84.1284 213.04 84.1322 213.425 84.1396 213.755C84.1471 214.084 84.207 214.38 84.3193 214.642C84.4242 214.904 84.6076 215.114 84.8696 215.271C85.1392 215.421 85.5285 215.496 86.0376 215.496C86.2472 215.496 86.5205 215.451 86.8574 215.361C87.2018 215.271 87.4414 215.189 87.5762 215.114H87.9131V217.888ZM95.707 200.525L92.439 207.14H89.811L91.5742 200.525H95.707ZM108.937 214.002C108.937 215.305 108.353 216.357 107.185 217.158C106.017 217.951 104.418 218.348 102.389 218.348C101.266 218.348 100.248 218.243 99.3345 218.034C98.4211 217.824 97.6873 217.592 97.1333 217.337V214.013H97.5039C97.7061 214.155 97.9382 214.313 98.2002 214.485C98.4697 214.65 98.8478 214.829 99.3345 215.024C99.7537 215.196 100.229 215.346 100.761 215.473C101.292 215.593 101.861 215.653 102.468 215.653C103.261 215.653 103.849 215.567 104.231 215.395C104.613 215.215 104.804 214.953 104.804 214.608C104.804 214.301 104.691 214.081 104.467 213.946C104.242 213.804 103.815 213.669 103.187 213.542C102.887 213.474 102.479 213.403 101.962 213.328C101.453 213.246 100.989 213.148 100.57 213.036C99.4243 212.737 98.5745 212.272 98.0205 211.644C97.4665 211.007 97.1895 210.217 97.1895 209.274C97.1895 208.061 97.7622 207.054 98.9077 206.253C100.061 205.444 101.633 205.04 103.625 205.04C104.568 205.04 105.47 205.137 106.331 205.332C107.2 205.519 107.877 205.721 108.364 205.938V209.128H108.016C107.417 208.716 106.732 208.383 105.96 208.128C105.197 207.866 104.422 207.735 103.636 207.735C102.984 207.735 102.434 207.825 101.985 208.005C101.543 208.185 101.322 208.439 101.322 208.769C101.322 209.068 101.423 209.296 101.625 209.454C101.828 209.611 102.303 209.768 103.052 209.925C103.464 210.008 103.905 210.09 104.377 210.172C104.856 210.247 105.335 210.345 105.814 210.464C106.878 210.741 107.664 211.179 108.173 211.778C108.682 212.37 108.937 213.111 108.937 214.002ZM126.063 218.337C124.962 218.337 123.955 218.206 123.042 217.944C122.136 217.682 121.346 217.278 120.672 216.731C120.006 216.184 119.489 215.496 119.123 214.665C118.756 213.833 118.572 212.86 118.572 211.745C118.572 210.569 118.767 209.555 119.156 208.701C119.553 207.848 120.103 207.14 120.807 206.579C121.488 206.047 122.275 205.658 123.166 205.411C124.056 205.164 124.981 205.04 125.939 205.04C126.8 205.04 127.594 205.134 128.32 205.321C129.047 205.508 129.724 205.751 130.353 206.051V209.499H129.78C129.623 209.364 129.432 209.207 129.208 209.027C128.99 208.847 128.721 208.671 128.399 208.499C128.092 208.334 127.755 208.2 127.388 208.095C127.021 207.982 126.595 207.926 126.108 207.926C125.03 207.926 124.199 208.271 123.615 208.959C123.038 209.641 122.75 210.569 122.75 211.745C122.75 212.958 123.046 213.878 123.637 214.507C124.236 215.136 125.082 215.451 126.175 215.451C126.684 215.451 127.141 215.395 127.545 215.282C127.957 215.162 128.298 215.024 128.567 214.867C128.822 214.717 129.047 214.56 129.241 214.395C129.436 214.23 129.616 214.069 129.78 213.912H130.353V217.36C129.717 217.659 129.05 217.895 128.354 218.067C127.665 218.247 126.902 218.337 126.063 218.337ZM145.705 218H141.64V211.745C141.64 211.236 141.613 210.73 141.561 210.229C141.509 209.719 141.419 209.345 141.292 209.105C141.142 208.828 140.921 208.626 140.629 208.499C140.344 208.372 139.944 208.308 139.427 208.308C139.06 208.308 138.686 208.368 138.304 208.488C137.93 208.608 137.522 208.799 137.08 209.061V218H133.037V200.525H137.08V206.781C137.799 206.219 138.488 205.789 139.146 205.489C139.813 205.19 140.55 205.04 141.359 205.04C142.722 205.04 143.785 205.437 144.548 206.23C145.319 207.024 145.705 208.211 145.705 209.791V218ZM161.854 212.441H152.601C152.66 213.429 153.035 214.185 153.724 214.709C154.42 215.234 155.442 215.496 156.79 215.496C157.643 215.496 158.47 215.342 159.271 215.035C160.073 214.728 160.705 214.399 161.169 214.047H161.619V217.292C160.705 217.659 159.844 217.925 159.036 218.09C158.227 218.255 157.332 218.337 156.352 218.337C153.821 218.337 151.882 217.768 150.534 216.63C149.187 215.492 148.513 213.871 148.513 211.767C148.513 209.686 149.149 208.039 150.422 206.826C151.702 205.605 153.454 204.995 155.678 204.995C157.729 204.995 159.271 205.515 160.305 206.556C161.338 207.589 161.854 209.079 161.854 211.026V212.441ZM157.834 210.071C157.812 209.225 157.602 208.589 157.205 208.162C156.808 207.735 156.191 207.522 155.352 207.522C154.573 207.522 153.933 207.724 153.432 208.128C152.93 208.533 152.649 209.18 152.589 210.071H157.834ZM171.277 218.337C170.176 218.337 169.169 218.206 168.256 217.944C167.35 217.682 166.56 217.278 165.886 216.731C165.22 216.184 164.703 215.496 164.336 214.665C163.97 213.833 163.786 212.86 163.786 211.745C163.786 210.569 163.981 209.555 164.37 208.701C164.767 207.848 165.317 207.14 166.021 206.579C166.702 206.047 167.488 205.658 168.379 205.411C169.27 205.164 170.195 205.04 171.153 205.04C172.014 205.04 172.808 205.134 173.534 205.321C174.26 205.508 174.938 205.751 175.567 206.051V209.499H174.994C174.837 209.364 174.646 209.207 174.421 209.027C174.204 208.847 173.935 208.671 173.613 208.499C173.306 208.334 172.969 208.2 172.602 208.095C172.235 207.982 171.808 207.926 171.322 207.926C170.244 207.926 169.413 208.271 168.829 208.959C168.252 209.641 167.964 210.569 167.964 211.745C167.964 212.958 168.26 213.878 168.851 214.507C169.45 215.136 170.296 215.451 171.389 215.451C171.898 215.451 172.355 215.395 172.759 215.282C173.171 215.162 173.512 215.024 173.781 214.867C174.036 214.717 174.26 214.56 174.455 214.395C174.65 214.23 174.829 214.069 174.994 213.912H175.567V217.36C174.931 217.659 174.264 217.895 173.568 218.067C172.879 218.247 172.115 218.337 171.277 218.337ZM191.638 218H186.932L183.395 212.508L182.294 213.845V218H178.251V200.525H182.294V210.958L186.651 205.388H191.312L186.775 210.824L191.638 218ZM207.237 213.542L210.112 205.388H214.267L207.259 222.627H202.879L204.878 217.91L199.971 205.388H204.216L207.237 213.542ZM229.417 211.7C229.417 213.774 228.811 215.41 227.598 216.607C226.392 217.798 224.696 218.393 222.51 218.393C220.324 218.393 218.625 217.798 217.412 216.607C216.206 215.41 215.604 213.774 215.604 211.7C215.604 209.611 216.21 207.971 217.423 206.781C218.643 205.59 220.339 204.995 222.51 204.995C224.711 204.995 226.411 205.594 227.609 206.792C228.814 207.99 229.417 209.626 229.417 211.7ZM224.442 214.766C224.704 214.444 224.899 214.058 225.026 213.609C225.161 213.152 225.228 212.523 225.228 211.722C225.228 210.981 225.161 210.36 225.026 209.858C224.891 209.356 224.704 208.956 224.464 208.656C224.225 208.349 223.937 208.132 223.6 208.005C223.263 207.878 222.9 207.814 222.51 207.814C222.121 207.814 221.773 207.866 221.466 207.971C221.166 208.076 220.878 208.286 220.601 208.6C220.354 208.892 220.156 209.293 220.006 209.802C219.864 210.311 219.792 210.951 219.792 211.722C219.792 212.411 219.856 213.01 219.983 213.519C220.111 214.021 220.298 214.425 220.545 214.732C220.785 215.024 221.069 215.237 221.398 215.372C221.735 215.507 222.117 215.574 222.544 215.574C222.911 215.574 223.259 215.514 223.588 215.395C223.925 215.267 224.21 215.058 224.442 214.766ZM244.881 218H240.838V216.607C240.09 217.176 239.405 217.611 238.783 217.91C238.162 218.202 237.421 218.348 236.56 218.348C235.167 218.348 234.093 217.948 233.336 217.146C232.588 216.345 232.213 215.162 232.213 213.598V205.388H236.279V211.644C236.279 212.28 236.298 212.812 236.335 213.238C236.38 213.658 236.477 214.006 236.627 214.283C236.769 214.56 236.983 214.762 237.267 214.889C237.559 215.016 237.963 215.08 238.48 215.08C238.824 215.08 239.206 215.016 239.625 214.889C240.045 214.762 240.449 214.575 240.838 214.328V205.388H244.881V218ZM257.853 209.24H257.493C257.321 209.18 257.044 209.135 256.662 209.105C256.28 209.076 255.962 209.061 255.708 209.061C255.131 209.061 254.622 209.098 254.18 209.173C253.738 209.248 253.263 209.375 252.754 209.555V218H248.711V205.388H252.754V207.241C253.645 206.478 254.42 205.972 255.079 205.725C255.737 205.471 256.344 205.343 256.898 205.343C257.04 205.343 257.201 205.347 257.381 205.354C257.561 205.362 257.718 205.373 257.853 205.388V209.24ZM62.2402 244.061V253H58.1748V246.7C58.1748 246.086 58.1598 245.565 58.1299 245.139C58.0999 244.704 58.0176 244.353 57.8828 244.083C57.748 243.813 57.5422 243.619 57.2651 243.499C56.9956 243.372 56.6138 243.308 56.1196 243.308C55.7228 243.308 55.3372 243.39 54.9629 243.555C54.5885 243.712 54.2516 243.881 53.9521 244.061V253H49.9092V240.388H53.9521V241.781C54.6484 241.234 55.3148 240.807 55.9512 240.5C56.5876 240.194 57.2913 240.04 58.0625 240.04C58.8936 240.04 59.6273 240.227 60.2637 240.602C60.9001 240.968 61.3979 241.511 61.7573 242.23C62.5659 241.549 63.3521 241.013 64.1157 240.624C64.8794 240.235 65.6281 240.04 66.3618 240.04C67.7244 240.04 68.7576 240.448 69.4614 241.264C70.1727 242.08 70.5283 243.256 70.5283 244.791V253H66.4629V246.7C66.4629 246.078 66.4479 245.554 66.418 245.127C66.3955 244.701 66.3169 244.353 66.1821 244.083C66.0549 243.813 65.8527 243.619 65.5757 243.499C65.2987 243.372 64.9093 243.308 64.4077 243.308C64.0708 243.308 63.7414 243.368 63.4194 243.488C63.0975 243.6 62.7044 243.791 62.2402 244.061ZM87.1494 246.7C87.1494 248.774 86.543 250.41 85.3301 251.607C84.1247 252.798 82.4289 253.393 80.2427 253.393C78.0565 253.393 76.3569 252.798 75.144 251.607C73.9386 250.41 73.3359 248.774 73.3359 246.7C73.3359 244.611 73.9424 242.971 75.1553 241.781C76.3757 240.59 78.0715 239.995 80.2427 239.995C82.4438 239.995 84.1434 240.594 85.3413 241.792C86.5467 242.99 87.1494 244.626 87.1494 246.7ZM82.1743 249.766C82.4364 249.444 82.631 249.058 82.7583 248.609C82.8931 248.152 82.9604 247.523 82.9604 246.722C82.9604 245.981 82.8931 245.36 82.7583 244.858C82.6235 244.356 82.4364 243.956 82.1968 243.656C81.9572 243.349 81.6689 243.132 81.332 243.005C80.9951 242.878 80.632 242.814 80.2427 242.814C79.8534 242.814 79.5052 242.866 79.1982 242.971C78.8988 243.076 78.6105 243.286 78.3335 243.6C78.0864 243.892 77.888 244.293 77.7383 244.802C77.596 245.311 77.5249 245.951 77.5249 246.722C77.5249 247.411 77.5885 248.01 77.7158 248.519C77.8431 249.021 78.0303 249.425 78.2773 249.732C78.5169 250.024 78.8014 250.237 79.1309 250.372C79.4678 250.507 79.8496 250.574 80.2764 250.574C80.6432 250.574 80.9914 250.514 81.3208 250.395C81.6577 250.267 81.9422 250.058 82.1743 249.766ZM102.939 246.7C102.939 248.774 102.333 250.41 101.12 251.607C99.9147 252.798 98.2189 253.393 96.0327 253.393C93.8465 253.393 92.147 252.798 90.9341 251.607C89.7287 250.41 89.126 248.774 89.126 246.7C89.126 244.611 89.7324 242.971 90.9453 241.781C92.1657 240.59 93.8615 239.995 96.0327 239.995C98.2339 239.995 99.9334 240.594 101.131 241.792C102.337 242.99 102.939 244.626 102.939 246.7ZM97.9644 249.766C98.2264 249.444 98.4211 249.058 98.5483 248.609C98.6831 248.152 98.7505 247.523 98.7505 246.722C98.7505 245.981 98.6831 245.36 98.5483 244.858C98.4136 244.356 98.2264 243.956 97.9868 243.656C97.7472 243.349 97.459 243.132 97.1221 243.005C96.7852 242.878 96.422 242.814 96.0327 242.814C95.6434 242.814 95.2952 242.866 94.9883 242.971C94.6888 243.076 94.4006 243.286 94.1235 243.6C93.8765 243.892 93.6781 244.293 93.5283 244.802C93.3861 245.311 93.3149 245.951 93.3149 246.722C93.3149 247.411 93.3786 248.01 93.5059 248.519C93.6331 249.021 93.8203 249.425 94.0674 249.732C94.307 250.024 94.5915 250.237 94.9209 250.372C95.2578 250.507 95.6396 250.574 96.0664 250.574C96.4333 250.574 96.7814 250.514 97.1108 250.395C97.4478 250.267 97.7323 250.058 97.9644 249.766ZM118.101 253H114.058V251.686C113.361 252.255 112.71 252.674 112.104 252.944C111.497 253.213 110.797 253.348 110.003 253.348C108.469 253.348 107.241 252.757 106.32 251.574C105.399 250.391 104.938 248.796 104.938 246.79C104.938 245.719 105.092 244.772 105.399 243.948C105.713 243.117 106.14 242.406 106.679 241.814C107.188 241.253 107.806 240.819 108.532 240.512C109.258 240.197 109.985 240.04 110.711 240.04C111.467 240.04 112.085 240.122 112.564 240.287C113.051 240.444 113.549 240.646 114.058 240.894V235.525H118.101V253ZM114.058 249.519V243.331C113.773 243.211 113.474 243.125 113.159 243.072C112.845 243.02 112.556 242.994 112.294 242.994C111.231 242.994 110.434 243.327 109.902 243.993C109.371 244.652 109.105 245.569 109.105 246.745C109.105 247.98 109.318 248.878 109.745 249.44C110.172 249.994 110.857 250.271 111.8 250.271C112.167 250.271 112.556 250.204 112.968 250.069C113.38 249.927 113.743 249.743 114.058 249.519Z" fill="#1F1F1F"/>
<path d="M59.0918 278.46H54.416V290H52.6758V278.46H48V276.913H59.0918V278.46ZM68.3467 290H66.7031V288.954C66.5566 289.054 66.3574 289.194 66.1055 289.376C65.8594 289.552 65.6191 289.692 65.3848 289.798C65.1094 289.933 64.793 290.044 64.4355 290.132C64.0781 290.226 63.6592 290.272 63.1787 290.272C62.2939 290.272 61.5439 289.979 60.9287 289.394C60.3135 288.808 60.0059 288.061 60.0059 287.152C60.0059 286.408 60.1641 285.808 60.4805 285.351C60.8027 284.888 61.2598 284.524 61.8516 284.261C62.4492 283.997 63.167 283.818 64.0049 283.725C64.8428 283.631 65.7422 283.561 66.7031 283.514V283.259C66.7031 282.884 66.6357 282.573 66.501 282.327C66.3721 282.081 66.1846 281.888 65.9385 281.747C65.7041 281.612 65.4229 281.521 65.0947 281.475C64.7666 281.428 64.4238 281.404 64.0664 281.404C63.6328 281.404 63.1494 281.463 62.6162 281.58C62.083 281.691 61.5322 281.855 60.9639 282.072H60.876V280.394C61.1982 280.306 61.6641 280.209 62.2734 280.104C62.8828 279.998 63.4834 279.945 64.0752 279.945C64.7666 279.945 65.3672 280.004 65.877 280.121C66.3926 280.232 66.8379 280.426 67.2129 280.701C67.582 280.971 67.8633 281.319 68.0566 281.747C68.25 282.175 68.3467 282.705 68.3467 283.338V290ZM66.7031 287.583V284.85C66.1992 284.879 65.6045 284.923 64.9189 284.981C64.2393 285.04 63.7002 285.125 63.3018 285.236C62.8271 285.371 62.4434 285.582 62.1504 285.869C61.8574 286.15 61.7109 286.54 61.7109 287.038C61.7109 287.601 61.8809 288.025 62.2207 288.312C62.5605 288.594 63.0791 288.734 63.7764 288.734C64.3564 288.734 64.8867 288.623 65.3672 288.4C65.8477 288.172 66.293 287.899 66.7031 287.583ZM80.168 284.973C80.168 285.77 80.0537 286.499 79.8252 287.161C79.5967 287.817 79.2744 288.374 78.8584 288.831C78.4717 289.265 78.0146 289.602 77.4873 289.842C76.9658 290.076 76.4121 290.193 75.8262 290.193C75.3164 290.193 74.8535 290.138 74.4375 290.026C74.0273 289.915 73.6084 289.742 73.1807 289.508V293.621H71.5283V280.183H73.1807V281.211C73.6201 280.842 74.1123 280.534 74.6572 280.288C75.208 280.036 75.7939 279.91 76.415 279.91C77.5986 279.91 78.5186 280.358 79.1748 281.255C79.8369 282.146 80.168 283.385 80.168 284.973ZM78.4629 285.017C78.4629 283.833 78.2607 282.948 77.8564 282.362C77.4521 281.776 76.8311 281.483 75.9932 281.483C75.5186 281.483 75.041 281.586 74.5605 281.791C74.0801 281.996 73.6201 282.266 73.1807 282.6V288.163C73.6494 288.374 74.0508 288.518 74.3848 288.594C74.7246 288.67 75.1084 288.708 75.5361 288.708C76.4561 288.708 77.1738 288.397 77.6895 287.776C78.2051 287.155 78.4629 286.235 78.4629 285.017ZM94.1689 289.912C93.8584 289.994 93.5186 290.062 93.1494 290.114C92.7861 290.167 92.4609 290.193 92.1738 290.193C91.1719 290.193 90.4102 289.924 89.8887 289.385C89.3672 288.846 89.1064 287.981 89.1064 286.792V281.571H87.9902V280.183H89.1064V277.361H90.7588V280.183H94.1689V281.571H90.7588V286.045C90.7588 286.561 90.7705 286.965 90.7939 287.258C90.8174 287.545 90.8994 287.814 91.04 288.066C91.1689 288.301 91.3447 288.474 91.5674 288.585C91.7959 288.69 92.1416 288.743 92.6045 288.743C92.874 288.743 93.1553 288.705 93.4482 288.629C93.7412 288.547 93.9521 288.479 94.0811 288.427H94.1689V289.912ZM104.54 285.096C104.54 286.695 104.13 287.958 103.31 288.884C102.489 289.81 101.391 290.272 100.014 290.272C98.625 290.272 97.5205 289.81 96.7002 288.884C95.8857 287.958 95.4785 286.695 95.4785 285.096C95.4785 283.496 95.8857 282.233 96.7002 281.308C97.5205 280.376 98.625 279.91 100.014 279.91C101.391 279.91 102.489 280.376 103.31 281.308C104.13 282.233 104.54 283.496 104.54 285.096ZM102.835 285.096C102.835 283.824 102.586 282.881 102.088 282.266C101.59 281.645 100.898 281.334 100.014 281.334C99.1172 281.334 98.4199 281.645 97.9219 282.266C97.4297 282.881 97.1836 283.824 97.1836 285.096C97.1836 286.326 97.4326 287.261 97.9307 287.899C98.4287 288.532 99.123 288.849 100.014 288.849C100.893 288.849 101.581 288.535 102.079 287.908C102.583 287.275 102.835 286.338 102.835 285.096ZM121.397 288.884C121.397 290.548 121.02 291.77 120.264 292.549C119.508 293.328 118.345 293.718 116.774 293.718C116.253 293.718 115.743 293.68 115.245 293.604C114.753 293.533 114.267 293.431 113.786 293.296V291.608H113.874C114.144 291.714 114.571 291.843 115.157 291.995C115.743 292.153 116.329 292.232 116.915 292.232C117.478 292.232 117.943 292.165 118.312 292.03C118.682 291.896 118.969 291.708 119.174 291.468C119.379 291.239 119.525 290.964 119.613 290.642C119.701 290.319 119.745 289.959 119.745 289.561V288.664C119.247 289.062 118.77 289.361 118.312 289.561C117.861 289.754 117.284 289.851 116.581 289.851C115.409 289.851 114.478 289.429 113.786 288.585C113.101 287.735 112.758 286.54 112.758 284.999C112.758 284.155 112.875 283.429 113.109 282.819C113.35 282.204 113.675 281.674 114.085 281.229C114.466 280.812 114.929 280.49 115.474 280.262C116.019 280.027 116.561 279.91 117.1 279.91C117.668 279.91 118.143 279.969 118.523 280.086C118.91 280.197 119.317 280.37 119.745 280.604L119.851 280.183H121.397V288.884ZM119.745 287.302V281.949C119.306 281.75 118.896 281.609 118.515 281.527C118.14 281.439 117.765 281.396 117.39 281.396C116.481 281.396 115.767 281.7 115.245 282.31C114.724 282.919 114.463 283.804 114.463 284.964C114.463 286.065 114.656 286.9 115.043 287.469C115.43 288.037 116.071 288.321 116.968 288.321C117.448 288.321 117.929 288.23 118.409 288.049C118.896 287.861 119.341 287.612 119.745 287.302ZM132.867 285.263H125.634C125.634 285.866 125.725 286.394 125.906 286.845C126.088 287.29 126.337 287.656 126.653 287.943C126.958 288.225 127.318 288.436 127.734 288.576C128.156 288.717 128.619 288.787 129.123 288.787C129.791 288.787 130.462 288.655 131.136 288.392C131.815 288.122 132.299 287.858 132.586 287.601H132.674V289.402C132.117 289.637 131.549 289.833 130.969 289.991C130.389 290.149 129.779 290.229 129.141 290.229C127.512 290.229 126.24 289.789 125.326 288.91C124.412 288.025 123.955 286.771 123.955 285.148C123.955 283.543 124.392 282.269 125.265 281.325C126.144 280.382 127.298 279.91 128.728 279.91C130.052 279.91 131.071 280.297 131.786 281.07C132.507 281.844 132.867 282.942 132.867 284.366V285.263ZM131.259 283.997C131.253 283.13 131.033 282.459 130.6 281.984C130.172 281.51 129.519 281.272 128.64 281.272C127.755 281.272 127.049 281.533 126.521 282.055C126 282.576 125.704 283.224 125.634 283.997H131.259ZM140.47 289.912C140.159 289.994 139.819 290.062 139.45 290.114C139.087 290.167 138.762 290.193 138.475 290.193C137.473 290.193 136.711 289.924 136.189 289.385C135.668 288.846 135.407 287.981 135.407 286.792V281.571H134.291V280.183H135.407V277.361H137.06V280.183H140.47V281.571H137.06V286.045C137.06 286.561 137.071 286.965 137.095 287.258C137.118 287.545 137.2 287.814 137.341 288.066C137.47 288.301 137.646 288.474 137.868 288.585C138.097 288.69 138.442 288.743 138.905 288.743C139.175 288.743 139.456 288.705 139.749 288.629C140.042 288.547 140.253 288.479 140.382 288.427H140.47V289.912ZM155.815 287.17C155.815 288.066 155.443 288.802 154.699 289.376C153.961 289.95 152.95 290.237 151.667 290.237C150.94 290.237 150.272 290.152 149.663 289.982C149.06 289.807 148.553 289.616 148.143 289.411V287.557H148.23C148.752 287.949 149.332 288.263 149.971 288.497C150.609 288.726 151.222 288.84 151.808 288.84C152.534 288.84 153.103 288.723 153.513 288.488C153.923 288.254 154.128 287.885 154.128 287.381C154.128 286.994 154.017 286.701 153.794 286.502C153.571 286.303 153.144 286.133 152.511 285.992C152.276 285.939 151.969 285.878 151.588 285.808C151.213 285.737 150.87 285.661 150.56 285.579C149.698 285.351 149.086 285.017 148.723 284.577C148.365 284.132 148.187 283.587 148.187 282.942C148.187 282.538 148.269 282.157 148.433 281.8C148.603 281.442 148.857 281.123 149.197 280.842C149.525 280.566 149.941 280.35 150.445 280.191C150.955 280.027 151.523 279.945 152.15 279.945C152.736 279.945 153.328 280.019 153.926 280.165C154.529 280.306 155.03 280.479 155.429 280.684V282.45H155.341C154.919 282.14 154.406 281.879 153.803 281.668C153.199 281.451 152.607 281.343 152.027 281.343C151.424 281.343 150.914 281.46 150.498 281.694C150.082 281.923 149.874 282.266 149.874 282.723C149.874 283.127 150 283.432 150.252 283.637C150.498 283.842 150.896 284.009 151.447 284.138C151.752 284.208 152.092 284.278 152.467 284.349C152.848 284.419 153.164 284.483 153.416 284.542C154.184 284.718 154.775 285.02 155.191 285.447C155.607 285.881 155.815 286.455 155.815 287.17ZM163.286 289.912C162.976 289.994 162.636 290.062 162.267 290.114C161.903 290.167 161.578 290.193 161.291 290.193C160.289 290.193 159.527 289.924 159.006 289.385C158.484 288.846 158.224 287.981 158.224 286.792V281.571H157.107V280.183H158.224V277.361H159.876V280.183H163.286V281.571H159.876V286.045C159.876 286.561 159.888 286.965 159.911 287.258C159.935 287.545 160.017 287.814 160.157 288.066C160.286 288.301 160.462 288.474 160.685 288.585C160.913 288.69 161.259 288.743 161.722 288.743C161.991 288.743 162.272 288.705 162.565 288.629C162.858 288.547 163.069 288.479 163.198 288.427H163.286V289.912ZM172.919 290H171.275V288.954C171.129 289.054 170.93 289.194 170.678 289.376C170.432 289.552 170.191 289.692 169.957 289.798C169.682 289.933 169.365 290.044 169.008 290.132C168.65 290.226 168.231 290.272 167.751 290.272C166.866 290.272 166.116 289.979 165.501 289.394C164.886 288.808 164.578 288.061 164.578 287.152C164.578 286.408 164.736 285.808 165.053 285.351C165.375 284.888 165.832 284.524 166.424 284.261C167.021 283.997 167.739 283.818 168.577 283.725C169.415 283.631 170.314 283.561 171.275 283.514V283.259C171.275 282.884 171.208 282.573 171.073 282.327C170.944 282.081 170.757 281.888 170.511 281.747C170.276 281.612 169.995 281.521 169.667 281.475C169.339 281.428 168.996 281.404 168.639 281.404C168.205 281.404 167.722 281.463 167.188 281.58C166.655 281.691 166.104 281.855 165.536 282.072H165.448V280.394C165.771 280.306 166.236 280.209 166.846 280.104C167.455 279.998 168.056 279.945 168.647 279.945C169.339 279.945 169.939 280.004 170.449 280.121C170.965 280.232 171.41 280.426 171.785 280.701C172.154 280.971 172.436 281.319 172.629 281.747C172.822 282.175 172.919 282.705 172.919 283.338V290ZM171.275 287.583V284.85C170.771 284.879 170.177 284.923 169.491 284.981C168.812 285.04 168.272 285.125 167.874 285.236C167.399 285.371 167.016 285.582 166.723 285.869C166.43 286.15 166.283 286.54 166.283 287.038C166.283 287.601 166.453 288.025 166.793 288.312C167.133 288.594 167.651 288.734 168.349 288.734C168.929 288.734 169.459 288.623 169.939 288.4C170.42 288.172 170.865 287.899 171.275 287.583ZM182.227 281.984H182.139C181.893 281.926 181.652 281.885 181.418 281.861C181.189 281.832 180.917 281.817 180.601 281.817C180.091 281.817 179.599 281.932 179.124 282.16C178.649 282.383 178.192 282.673 177.753 283.03V290H176.101V280.183H177.753V281.633C178.409 281.105 178.986 280.733 179.484 280.517C179.988 280.294 180.501 280.183 181.022 280.183C181.31 280.183 181.518 280.191 181.646 280.209C181.775 280.221 181.969 280.247 182.227 280.288V281.984ZM188.88 289.912C188.569 289.994 188.229 290.062 187.86 290.114C187.497 290.167 187.172 290.193 186.885 290.193C185.883 290.193 185.121 289.924 184.6 289.385C184.078 288.846 183.817 287.981 183.817 286.792V281.571H182.701V280.183H183.817V277.361H185.47V280.183H188.88V281.571H185.47V286.045C185.47 286.561 185.481 286.965 185.505 287.258C185.528 287.545 185.61 287.814 185.751 288.066C185.88 288.301 186.056 288.474 186.278 288.585C186.507 288.69 186.853 288.743 187.315 288.743C187.585 288.743 187.866 288.705 188.159 288.629C188.452 288.547 188.663 288.479 188.792 288.427H188.88V289.912ZM199.102 285.263H191.868C191.868 285.866 191.959 286.394 192.141 286.845C192.322 287.29 192.571 287.656 192.888 287.943C193.192 288.225 193.553 288.436 193.969 288.576C194.391 288.717 194.854 288.787 195.357 288.787C196.025 288.787 196.696 288.655 197.37 288.392C198.05 288.122 198.533 287.858 198.82 287.601H198.908V289.402C198.352 289.637 197.783 289.833 197.203 289.991C196.623 290.149 196.014 290.229 195.375 290.229C193.746 290.229 192.475 289.789 191.561 288.91C190.646 288.025 190.189 286.771 190.189 285.148C190.189 283.543 190.626 282.269 191.499 281.325C192.378 280.382 193.532 279.91 194.962 279.91C196.286 279.91 197.306 280.297 198.021 281.07C198.741 281.844 199.102 282.942 199.102 284.366V285.263ZM197.493 283.997C197.487 283.13 197.268 282.459 196.834 281.984C196.406 281.51 195.753 281.272 194.874 281.272C193.989 281.272 193.283 281.533 192.756 282.055C192.234 282.576 191.938 283.224 191.868 283.997H197.493ZM209.569 290H207.917V288.972C207.442 289.382 206.947 289.701 206.432 289.93C205.916 290.158 205.356 290.272 204.753 290.272C203.581 290.272 202.649 289.821 201.958 288.919C201.272 288.017 200.93 286.766 200.93 285.166C200.93 284.334 201.047 283.593 201.281 282.942C201.521 282.292 201.844 281.738 202.248 281.281C202.646 280.836 203.109 280.496 203.637 280.262C204.17 280.027 204.721 279.91 205.289 279.91C205.805 279.91 206.262 279.966 206.66 280.077C207.059 280.183 207.478 280.35 207.917 280.578V276.324H209.569V290ZM207.917 287.583V281.949C207.472 281.75 207.073 281.612 206.722 281.536C206.37 281.46 205.986 281.422 205.57 281.422C204.645 281.422 203.924 281.744 203.408 282.389C202.893 283.033 202.635 283.947 202.635 285.131C202.635 286.297 202.834 287.185 203.232 287.794C203.631 288.397 204.27 288.699 205.148 288.699C205.617 288.699 206.092 288.597 206.572 288.392C207.053 288.181 207.501 287.911 207.917 287.583Z" fill="#1F1F1F"/>
<path d="M350.001 249.667C364.728 249.667 376.667 237.728 376.667 223C376.667 208.273 364.728 196.333 350.001 196.333C335.273 196.333 323.334 208.273 323.334 223C323.334 237.728 335.273 249.667 350.001 249.667Z" stroke="#1F1F1F" stroke-width="5.33333" stroke-linecap="round"/>
<path d="M339.334 215.133V214.867M360.667 215.133V214.867" stroke="#1F1F1F" stroke-width="5.33333" stroke-linecap="round"/>
<path d="M360.667 228.333C359.334 232.333 355.894 236.333 350.001 236.333C344.107 236.333 340.667 232.333 339.334 228.333" stroke="#1F1F1F" stroke-width="5.33333" stroke-linecap="round" stroke-linejoin="round"/>
<rect x="25.5" y="168.5" width="379" height="150" rx="18.5" stroke="#F0AF9E" stroke-width="3" shape-rendering="crispEdges"/>
</g>
<rect x="25.5" y="345.5" width="180" height="173" rx="18.5" fill="#EAFAF1"/>
<rect x="75.5" y="376" width="80" height="80" rx="40" fill="#C8E6D6"/>
<path d="M119.5 430C127.042 430 130.814 430 133.156 427.656C135.5 425.314 135.5 421.542 135.5 414C135.5 406.458 135.5 402.686 133.156 400.344C130.814 398 127.042 398 119.5 398H111.5C103.958 398 100.186 398 97.844 400.344C95.5 402.686 95.5 406.458 95.5 414C95.5 421.542 95.5 425.314 97.844 427.656C99.15 428.964 100.9 429.542 103.5 429.796" stroke="#1F1F1F" stroke-width="4" stroke-linecap="round" stroke-linejoin="round"/>
<path d="M115.5 414V414.02M107.5 414V414.02M123.5 414V414.02M119.5 430C117.028 430 114.304 431 111.818 432.29C107.822 434.364 105.824 435.402 104.84 434.74C103.856 434.08 104.042 432.03 104.416 427.932L104.5 427" stroke="#1F1F1F" stroke-width="4" stroke-linecap="round"/>
<path d="M101.742 482.227C100.878 482.227 100.078 482.099 99.3438 481.844C98.6146 481.589 97.987 481.208 97.4609 480.703C96.9349 480.198 96.526 479.568 96.2344 478.812C95.9479 478.057 95.8047 477.185 95.8047 476.195C95.8047 475.273 95.9427 474.438 96.2188 473.688C96.4948 472.938 96.8958 472.294 97.4219 471.758C97.9271 471.242 98.5521 470.844 99.2969 470.562C100.047 470.281 100.865 470.141 101.75 470.141C102.24 470.141 102.68 470.169 103.07 470.227C103.466 470.279 103.831 470.349 104.164 470.438C104.513 470.536 104.828 470.648 105.109 470.773C105.396 470.893 105.646 471.005 105.859 471.109V473.93H105.516C105.37 473.805 105.185 473.656 104.961 473.484C104.742 473.312 104.492 473.143 104.211 472.977C103.924 472.81 103.615 472.669 103.281 472.555C102.948 472.44 102.591 472.383 102.211 472.383C101.789 472.383 101.388 472.451 101.008 472.586C100.628 472.716 100.276 472.935 99.9531 473.242C99.6458 473.539 99.3958 473.932 99.2031 474.422C99.0156 474.911 98.9219 475.505 98.9219 476.203C98.9219 476.932 99.0234 477.542 99.2266 478.031C99.4349 478.521 99.6953 478.906 100.008 479.188C100.326 479.474 100.68 479.68 101.07 479.805C101.461 479.924 101.846 479.984 102.227 479.984C102.591 479.984 102.951 479.93 103.305 479.82C103.664 479.711 103.995 479.562 104.297 479.375C104.552 479.224 104.789 479.062 105.008 478.891C105.227 478.719 105.406 478.57 105.547 478.445H105.859V481.227C105.568 481.357 105.289 481.479 105.023 481.594C104.758 481.708 104.479 481.807 104.188 481.891C103.807 482 103.451 482.083 103.117 482.141C102.784 482.198 102.326 482.227 101.742 482.227ZM116.719 482H113.891V477.648C113.891 477.294 113.872 476.943 113.836 476.594C113.799 476.24 113.737 475.979 113.648 475.812C113.544 475.62 113.391 475.479 113.188 475.391C112.99 475.302 112.711 475.258 112.352 475.258C112.096 475.258 111.836 475.299 111.57 475.383C111.31 475.466 111.026 475.599 110.719 475.781V482H107.906V469.844H110.719V474.195C111.219 473.805 111.698 473.505 112.156 473.297C112.62 473.089 113.133 472.984 113.695 472.984C114.643 472.984 115.383 473.26 115.914 473.812C116.451 474.365 116.719 475.19 116.719 476.289V482ZM124.625 479.711V477.883C124.245 477.914 123.833 477.958 123.391 478.016C122.948 478.068 122.612 478.13 122.383 478.203C122.102 478.292 121.885 478.422 121.734 478.594C121.589 478.76 121.516 478.982 121.516 479.258C121.516 479.44 121.531 479.589 121.562 479.703C121.594 479.818 121.672 479.927 121.797 480.031C121.917 480.135 122.06 480.214 122.227 480.266C122.393 480.312 122.654 480.336 123.008 480.336C123.289 480.336 123.573 480.279 123.859 480.164C124.151 480.049 124.406 479.898 124.625 479.711ZM124.625 481.07C124.474 481.185 124.286 481.323 124.062 481.484C123.839 481.646 123.628 481.773 123.43 481.867C123.154 481.992 122.867 482.083 122.57 482.141C122.273 482.203 121.948 482.234 121.594 482.234C120.76 482.234 120.062 481.977 119.5 481.461C118.938 480.945 118.656 480.286 118.656 479.484C118.656 478.844 118.799 478.32 119.086 477.914C119.372 477.508 119.779 477.188 120.305 476.953C120.826 476.719 121.471 476.552 122.242 476.453C123.013 476.354 123.812 476.281 124.641 476.234V476.188C124.641 475.703 124.443 475.37 124.047 475.188C123.651 475 123.068 474.906 122.297 474.906C121.833 474.906 121.339 474.99 120.812 475.156C120.286 475.318 119.909 475.443 119.68 475.531H119.422V473.414C119.719 473.336 120.201 473.245 120.867 473.141C121.539 473.031 122.211 472.977 122.883 472.977C124.482 472.977 125.635 473.224 126.344 473.719C127.057 474.208 127.414 474.979 127.414 476.031V482H124.625V481.07ZM135.609 481.922C135.307 482 134.987 482.06 134.648 482.102C134.31 482.148 133.896 482.172 133.406 482.172C132.312 482.172 131.497 481.951 130.961 481.508C130.43 481.065 130.164 480.307 130.164 479.234V475.133H129.008V473.227H130.164V470.719H132.977V473.227H135.609V475.133H132.977V478.242C132.977 478.549 132.979 478.818 132.984 479.047C132.99 479.276 133.031 479.482 133.109 479.664C133.182 479.846 133.31 479.992 133.492 480.102C133.68 480.206 133.951 480.258 134.305 480.258C134.451 480.258 134.641 480.227 134.875 480.164C135.115 480.102 135.281 480.044 135.375 479.992H135.609V481.922Z" fill="#1F1F1F"/>
<rect x="25.5" y="345.5" width="180" height="173" rx="18.5" stroke="#C8E6D6" stroke-width="3"/>
<rect x="224.5" y="345.5" width="180" height="173" rx="18.5" fill="#E8F8FD"/>
<rect x="274.5" y="376" width="80" height="80" rx="40" fill="#A9D6E5"/>
<path d="M323.938 431.504L322.658 421.256C322.477 419.804 321.771 418.469 320.675 417.501C319.578 416.533 318.165 415.999 316.702 416H312.294C310.832 416 309.42 416.535 308.324 417.503C307.228 418.47 306.523 419.805 306.342 421.256L305.06 431.504C304.99 432.067 305.04 432.639 305.208 433.181C305.375 433.723 305.656 434.223 306.032 434.648C306.407 435.074 306.869 435.414 307.386 435.647C307.904 435.88 308.465 436 309.032 436H319.968C320.535 436 321.096 435.88 321.613 435.646C322.13 435.413 322.592 435.073 322.967 434.648C323.343 434.222 323.624 433.722 323.791 433.18C323.958 432.638 324.009 432.067 323.938 431.504Z" stroke="#1F1F1F" stroke-width="4" stroke-linecap="round" stroke-linejoin="round"/>
<path d="M314.5 408C317.814 408 320.5 405.314 320.5 402C320.5 398.686 317.814 396 314.5 396C311.186 396 308.5 398.686 308.5 402C308.5 405.314 311.186 408 314.5 408Z" stroke="#1F1F1F" stroke-width="4"/>
<path d="M298.5 414C300.709 414 302.5 412.209 302.5 410C302.5 407.791 300.709 406 298.5 406C296.291 406 294.5 407.791 294.5 410C294.5 412.209 296.291 414 298.5 414Z" stroke="#1F1F1F" stroke-width="4"/>
<path d="M330.5 414C332.709 414 334.5 412.209 334.5 410C334.5 407.791 332.709 406 330.5 406C328.291 406 326.5 407.791 326.5 410C326.5 412.209 328.291 414 330.5 414Z" stroke="#1F1F1F" stroke-width="4"/>
<path d="M298.499 420H297.887C296.94 420 296.024 420.336 295.302 420.948C294.579 421.56 294.097 422.408 293.941 423.342L293.275 427.342C293.18 427.915 293.21 428.502 293.364 429.062C293.519 429.622 293.793 430.142 294.169 430.586C294.544 431.029 295.012 431.385 295.539 431.629C296.066 431.874 296.64 432 297.221 432H304.499M330.499 420H331.111C332.058 420 332.974 420.336 333.697 420.948C334.419 421.56 334.901 422.408 335.057 423.342L335.723 427.342C335.819 427.915 335.788 428.502 335.634 429.062C335.48 429.622 335.205 430.142 334.83 430.586C334.454 431.029 333.987 431.385 333.459 431.629C332.932 431.874 332.358 432 331.777 432H324.499" stroke="#1F1F1F" stroke-width="4" stroke-linecap="round" stroke-linejoin="round"/>
<path d="M287.18 482H284.195V474.211L282.039 479.266H279.969L277.812 474.211V482H274.984V470.367H278.469L281.086 476.203L283.695 470.367H287.18V482ZM293.961 478.898L295.961 473.227H298.852L293.977 485.219H290.93L292.32 481.938L288.906 473.227H291.859L293.961 478.898ZM311.305 482.227C310.44 482.227 309.641 482.099 308.906 481.844C308.177 481.589 307.549 481.208 307.023 480.703C306.497 480.198 306.089 479.568 305.797 478.812C305.51 478.057 305.367 477.185 305.367 476.195C305.367 475.273 305.505 474.438 305.781 473.688C306.057 472.938 306.458 472.294 306.984 471.758C307.49 471.242 308.115 470.844 308.859 470.562C309.609 470.281 310.427 470.141 311.312 470.141C311.802 470.141 312.242 470.169 312.633 470.227C313.029 470.279 313.393 470.349 313.727 470.438C314.076 470.536 314.391 470.648 314.672 470.773C314.958 470.893 315.208 471.005 315.422 471.109V473.93H315.078C314.932 473.805 314.747 473.656 314.523 473.484C314.305 473.312 314.055 473.143 313.773 472.977C313.487 472.81 313.177 472.669 312.844 472.555C312.51 472.44 312.154 472.383 311.773 472.383C311.352 472.383 310.951 472.451 310.57 472.586C310.19 472.716 309.839 472.935 309.516 473.242C309.208 473.539 308.958 473.932 308.766 474.422C308.578 474.911 308.484 475.505 308.484 476.203C308.484 476.932 308.586 477.542 308.789 478.031C308.997 478.521 309.258 478.906 309.57 479.188C309.888 479.474 310.242 479.68 310.633 479.805C311.023 479.924 311.409 479.984 311.789 479.984C312.154 479.984 312.513 479.93 312.867 479.82C313.227 479.711 313.557 479.562 313.859 479.375C314.115 479.224 314.352 479.062 314.57 478.891C314.789 478.719 314.969 478.57 315.109 478.445H315.422V481.227C315.13 481.357 314.852 481.479 314.586 481.594C314.32 481.708 314.042 481.807 313.75 481.891C313.37 482 313.013 482.083 312.68 482.141C312.346 482.198 311.888 482.227 311.305 482.227ZM320.281 482H317.469V473.227H320.281V482ZM320.359 471.977H317.391V469.844H320.359V471.977ZM329.297 475.906H329.047C328.927 475.865 328.734 475.833 328.469 475.812C328.203 475.792 327.982 475.781 327.805 475.781C327.404 475.781 327.049 475.807 326.742 475.859C326.435 475.911 326.104 476 325.75 476.125V482H322.938V473.227H325.75V474.516C326.37 473.984 326.909 473.633 327.367 473.461C327.826 473.284 328.247 473.195 328.633 473.195C328.732 473.195 328.844 473.198 328.969 473.203C329.094 473.208 329.203 473.216 329.297 473.227V475.906ZM335.461 482.234C334.695 482.234 333.995 482.143 333.359 481.961C332.729 481.779 332.18 481.497 331.711 481.117C331.247 480.737 330.888 480.258 330.633 479.68C330.378 479.102 330.25 478.424 330.25 477.648C330.25 476.831 330.385 476.125 330.656 475.531C330.932 474.938 331.315 474.445 331.805 474.055C332.279 473.685 332.826 473.414 333.445 473.242C334.065 473.07 334.708 472.984 335.375 472.984C335.974 472.984 336.526 473.049 337.031 473.18C337.536 473.31 338.008 473.479 338.445 473.688V476.086H338.047C337.938 475.992 337.805 475.883 337.648 475.758C337.497 475.633 337.31 475.51 337.086 475.391C336.872 475.276 336.638 475.182 336.383 475.109C336.128 475.031 335.831 474.992 335.492 474.992C334.742 474.992 334.164 475.232 333.758 475.711C333.357 476.185 333.156 476.831 333.156 477.648C333.156 478.492 333.362 479.133 333.773 479.57C334.19 480.008 334.779 480.227 335.539 480.227C335.893 480.227 336.211 480.188 336.492 480.109C336.779 480.026 337.016 479.93 337.203 479.82C337.38 479.716 337.536 479.607 337.672 479.492C337.807 479.378 337.932 479.266 338.047 479.156H338.445V481.555C338.003 481.763 337.539 481.927 337.055 482.047C336.576 482.172 336.044 482.234 335.461 482.234ZM343.125 482H340.312V469.844H343.125V482ZM354.422 478.133H347.984C348.026 478.82 348.286 479.346 348.766 479.711C349.25 480.076 349.961 480.258 350.898 480.258C351.492 480.258 352.068 480.151 352.625 479.938C353.182 479.724 353.622 479.495 353.945 479.25H354.258V481.508C353.622 481.763 353.023 481.948 352.461 482.062C351.898 482.177 351.276 482.234 350.594 482.234C348.833 482.234 347.484 481.839 346.547 481.047C345.609 480.255 345.141 479.128 345.141 477.664C345.141 476.216 345.583 475.07 346.469 474.227C347.359 473.378 348.578 472.953 350.125 472.953C351.552 472.953 352.625 473.315 353.344 474.039C354.062 474.758 354.422 475.794 354.422 477.148V478.133ZM351.625 476.484C351.609 475.896 351.464 475.453 351.188 475.156C350.911 474.859 350.482 474.711 349.898 474.711C349.357 474.711 348.911 474.852 348.562 475.133C348.214 475.414 348.018 475.865 347.977 476.484H351.625Z" fill="#1F1F1F"/>
<rect x="224.5" y="345.5" width="180" height="173" rx="18.5" stroke="#A9D6E5" stroke-width="3"/>
<rect x="25.5" y="537.5" width="180" height="173" rx="18.5" fill="#FFF9E2"/>
<rect x="75.5" y="568" width="80" height="80" rx="40" fill="#FFEC9E"/>
<path d="M127.5 592H103.5C99.0817 592 95.5 595.582 95.5 600V620C95.5 624.418 99.0817 628 103.5 628H127.5C131.918 628 135.5 624.418 135.5 620V600C135.5 595.582 131.918 592 127.5 592Z" stroke="#1F1F1F" stroke-width="4" stroke-linecap="round" stroke-linejoin="round"/>
<path d="M107.5 588V596M123.5 588V596M95.5 604H135.5" stroke="#1F1F1F" stroke-width="4" stroke-linecap="round" stroke-linejoin="round"/>
<path d="M94.8984 674H86.4844V662.367H94.8984V664.617H89.4688V666.625H94.5078V668.875H89.4688V671.75H94.8984V674ZM106.102 665.227L102.719 674H99.5312L96.1719 665.227H99.1484L101.18 671.258L103.188 665.227H106.102ZM116.312 670.133H109.875C109.917 670.82 110.177 671.346 110.656 671.711C111.141 672.076 111.852 672.258 112.789 672.258C113.383 672.258 113.958 672.151 114.516 671.938C115.073 671.724 115.513 671.495 115.836 671.25H116.148V673.508C115.513 673.763 114.914 673.948 114.352 674.062C113.789 674.177 113.167 674.234 112.484 674.234C110.724 674.234 109.375 673.839 108.438 673.047C107.5 672.255 107.031 671.128 107.031 669.664C107.031 668.216 107.474 667.07 108.359 666.227C109.25 665.378 110.469 664.953 112.016 664.953C113.443 664.953 114.516 665.315 115.234 666.039C115.953 666.758 116.312 667.794 116.312 669.148V670.133ZM113.516 668.484C113.5 667.896 113.354 667.453 113.078 667.156C112.802 666.859 112.372 666.711 111.789 666.711C111.247 666.711 110.802 666.852 110.453 667.133C110.104 667.414 109.909 667.865 109.867 668.484H113.516ZM127.109 674H124.281V669.648C124.281 669.294 124.263 668.943 124.227 668.594C124.19 668.24 124.128 667.979 124.039 667.812C123.935 667.62 123.781 667.479 123.578 667.391C123.38 667.302 123.102 667.258 122.742 667.258C122.487 667.258 122.227 667.299 121.961 667.383C121.701 667.466 121.417 667.599 121.109 667.781V674H118.297V665.227H121.109V666.195C121.609 665.805 122.089 665.505 122.547 665.297C123.01 665.089 123.523 664.984 124.086 664.984C125.034 664.984 125.773 665.26 126.305 665.812C126.841 666.365 127.109 667.19 127.109 668.289V674ZM135.312 673.922C135.01 674 134.69 674.06 134.352 674.102C134.013 674.148 133.599 674.172 133.109 674.172C132.016 674.172 131.201 673.951 130.664 673.508C130.133 673.065 129.867 672.307 129.867 671.234V667.133H128.711V665.227H129.867V662.719H132.68V665.227H135.312V667.133H132.68V670.242C132.68 670.549 132.682 670.818 132.688 671.047C132.693 671.276 132.734 671.482 132.812 671.664C132.885 671.846 133.013 671.992 133.195 672.102C133.383 672.206 133.654 672.258 134.008 672.258C134.154 672.258 134.344 672.227 134.578 672.164C134.818 672.102 134.984 672.044 135.078 671.992H135.312V673.922ZM144.625 671.219C144.625 672.125 144.219 672.857 143.406 673.414C142.594 673.966 141.482 674.242 140.07 674.242C139.289 674.242 138.581 674.169 137.945 674.023C137.31 673.878 136.799 673.716 136.414 673.539V671.227H136.672C136.812 671.326 136.974 671.435 137.156 671.555C137.344 671.669 137.607 671.794 137.945 671.93C138.237 672.049 138.568 672.154 138.938 672.242C139.307 672.326 139.703 672.367 140.125 672.367C140.677 672.367 141.086 672.307 141.352 672.188C141.617 672.062 141.75 671.88 141.75 671.641C141.75 671.427 141.672 671.273 141.516 671.18C141.359 671.081 141.062 670.987 140.625 670.898C140.417 670.852 140.133 670.802 139.773 670.75C139.419 670.693 139.096 670.625 138.805 670.547C138.008 670.339 137.417 670.016 137.031 669.578C136.646 669.135 136.453 668.586 136.453 667.93C136.453 667.086 136.852 666.385 137.648 665.828C138.451 665.266 139.544 664.984 140.93 664.984C141.586 664.984 142.214 665.052 142.812 665.188C143.417 665.318 143.888 665.458 144.227 665.609V667.828H143.984C143.568 667.542 143.091 667.31 142.555 667.133C142.023 666.951 141.484 666.859 140.938 666.859C140.484 666.859 140.102 666.922 139.789 667.047C139.482 667.172 139.328 667.349 139.328 667.578C139.328 667.786 139.398 667.945 139.539 668.055C139.68 668.164 140.01 668.273 140.531 668.383C140.818 668.44 141.125 668.497 141.453 668.555C141.786 668.607 142.12 668.674 142.453 668.758C143.193 668.951 143.74 669.255 144.094 669.672C144.448 670.083 144.625 670.599 144.625 671.219Z" fill="#1F1F1F"/>
<rect x="25.5" y="537.5" width="180" height="173" rx="18.5" stroke="#FFEC9E" stroke-width="3"/>
<rect x="224.5" y="537.5" width="180" height="173" rx="18.5" fill="#EBF1FC"/>
<rect x="274.5" y="568" width="80" height="80" rx="40" fill="#CFDCF1"/>
<path d="M296.5 594H304.5M332.5 594H312.5M296.5 608H320.5M332.5 608H328.5M296.5 622H300.5M332.5 622H308.5" stroke="#1F1F1F" stroke-width="4" stroke-linecap="round"/>
<path d="M308.5 598C310.709 598 312.5 596.209 312.5 594C312.5 591.791 310.709 590 308.5 590C306.291 590 304.5 591.791 304.5 594C304.5 596.209 306.291 598 308.5 598Z" stroke="#1F1F1F" stroke-width="4" stroke-linecap="round"/>
<path d="M324.5 612C326.709 612 328.5 610.209 328.5 608C328.5 605.791 326.709 604 324.5 604C322.291 604 320.5 605.791 320.5 608C320.5 610.209 322.291 612 324.5 612Z" stroke="#1F1F1F" stroke-width="4" stroke-linecap="round"/>
<path d="M304.5 626C306.709 626 308.5 624.209 308.5 622C308.5 619.791 306.709 618 304.5 618C302.291 618 300.5 619.791 300.5 622C300.5 624.209 302.291 626 304.5 626Z" stroke="#1F1F1F" stroke-width="4" stroke-linecap="round"/>
<path d="M287.797 670.344C287.797 671.49 287.31 672.422 286.336 673.141C285.367 673.854 284.049 674.211 282.383 674.211C281.419 674.211 280.578 674.128 279.859 673.961C279.146 673.789 278.477 673.573 277.852 673.312V670.523H278.18C278.799 671.018 279.492 671.398 280.258 671.664C281.029 671.93 281.768 672.062 282.477 672.062C282.659 672.062 282.898 672.047 283.195 672.016C283.492 671.984 283.734 671.932 283.922 671.859C284.151 671.766 284.339 671.648 284.484 671.508C284.635 671.367 284.711 671.159 284.711 670.883C284.711 670.628 284.602 670.409 284.383 670.227C284.169 670.039 283.854 669.896 283.438 669.797C283 669.693 282.536 669.596 282.047 669.508C281.562 669.414 281.107 669.297 280.68 669.156C279.701 668.839 278.995 668.409 278.562 667.867C278.135 667.32 277.922 666.643 277.922 665.836C277.922 664.753 278.406 663.87 279.375 663.188C280.349 662.5 281.599 662.156 283.125 662.156C283.891 662.156 284.646 662.232 285.391 662.383C286.141 662.529 286.789 662.714 287.336 662.938V665.617H287.016C286.547 665.242 285.971 664.93 285.289 664.68C284.612 664.424 283.919 664.297 283.211 664.297C282.961 664.297 282.711 664.315 282.461 664.352C282.216 664.383 281.979 664.445 281.75 664.539C281.547 664.617 281.372 664.737 281.227 664.898C281.081 665.055 281.008 665.234 281.008 665.438C281.008 665.745 281.125 665.982 281.359 666.148C281.594 666.31 282.036 666.458 282.688 666.594C283.115 666.682 283.523 666.768 283.914 666.852C284.31 666.935 284.734 667.049 285.188 667.195C286.078 667.487 286.734 667.885 287.156 668.391C287.583 668.891 287.797 669.542 287.797 670.344ZM298.344 670.133H291.906C291.948 670.82 292.208 671.346 292.688 671.711C293.172 672.076 293.883 672.258 294.82 672.258C295.414 672.258 295.99 672.151 296.547 671.938C297.104 671.724 297.544 671.495 297.867 671.25H298.18V673.508C297.544 673.763 296.945 673.948 296.383 674.062C295.82 674.177 295.198 674.234 294.516 674.234C292.755 674.234 291.406 673.839 290.469 673.047C289.531 672.255 289.062 671.128 289.062 669.664C289.062 668.216 289.505 667.07 290.391 666.227C291.281 665.378 292.5 664.953 294.047 664.953C295.474 664.953 296.547 665.315 297.266 666.039C297.984 666.758 298.344 667.794 298.344 669.148V670.133ZM295.547 668.484C295.531 667.896 295.385 667.453 295.109 667.156C294.833 666.859 294.404 666.711 293.82 666.711C293.279 666.711 292.833 666.852 292.484 667.133C292.135 667.414 291.94 667.865 291.898 668.484H295.547ZM305.938 673.922C305.635 674 305.315 674.06 304.977 674.102C304.638 674.148 304.224 674.172 303.734 674.172C302.641 674.172 301.826 673.951 301.289 673.508C300.758 673.065 300.492 672.307 300.492 671.234V667.133H299.336V665.227H300.492V662.719H303.305V665.227H305.938V667.133H303.305V670.242C303.305 670.549 303.307 670.818 303.312 671.047C303.318 671.276 303.359 671.482 303.438 671.664C303.51 671.846 303.638 671.992 303.82 672.102C304.008 672.206 304.279 672.258 304.633 672.258C304.779 672.258 304.969 672.227 305.203 672.164C305.443 672.102 305.609 672.044 305.703 671.992H305.938V673.922ZM313.234 673.922C312.932 674 312.612 674.06 312.273 674.102C311.935 674.148 311.521 674.172 311.031 674.172C309.938 674.172 309.122 673.951 308.586 673.508C308.055 673.065 307.789 672.307 307.789 671.234V667.133H306.633V665.227H307.789V662.719H310.602V665.227H313.234V667.133H310.602V670.242C310.602 670.549 310.604 670.818 310.609 671.047C310.615 671.276 310.656 671.482 310.734 671.664C310.807 671.846 310.935 671.992 311.117 672.102C311.305 672.206 311.576 672.258 311.93 672.258C312.076 672.258 312.266 672.227 312.5 672.164C312.74 672.102 312.906 672.044 313 671.992H313.234V673.922ZM317.734 674H314.922V665.227H317.734V674ZM317.812 663.977H314.844V661.844H317.812V663.977ZM329.203 674H326.375V669.648C326.375 669.294 326.357 668.943 326.32 668.594C326.284 668.24 326.221 667.979 326.133 667.812C326.029 667.62 325.875 667.479 325.672 667.391C325.474 667.302 325.195 667.258 324.836 667.258C324.581 667.258 324.32 667.299 324.055 667.383C323.794 667.466 323.51 667.599 323.203 667.781V674H320.391V665.227H323.203V666.195C323.703 665.805 324.182 665.505 324.641 665.297C325.104 665.089 325.617 664.984 326.18 664.984C327.128 664.984 327.867 665.26 328.398 665.812C328.935 666.365 329.203 667.19 329.203 668.289V674ZM340.328 672.992C340.328 673.815 340.211 674.508 339.977 675.07C339.742 675.633 339.414 676.073 338.992 676.391C338.57 676.714 338.06 676.945 337.461 677.086C336.867 677.232 336.195 677.305 335.445 677.305C334.836 677.305 334.234 677.268 333.641 677.195C333.052 677.122 332.542 677.034 332.109 676.93V674.734H332.453C332.797 674.87 333.216 674.992 333.711 675.102C334.206 675.216 334.648 675.273 335.039 675.273C335.56 675.273 335.982 675.224 336.305 675.125C336.633 675.031 336.883 674.896 337.055 674.719C337.216 674.552 337.333 674.339 337.406 674.078C337.479 673.818 337.516 673.505 337.516 673.141V672.977C337.177 673.253 336.802 673.471 336.391 673.633C335.979 673.794 335.521 673.875 335.016 673.875C333.786 673.875 332.839 673.505 332.172 672.766C331.505 672.026 331.172 670.901 331.172 669.391C331.172 668.667 331.273 668.042 331.477 667.516C331.68 666.99 331.966 666.531 332.336 666.141C332.68 665.776 333.102 665.492 333.602 665.289C334.107 665.086 334.622 664.984 335.148 664.984C335.622 664.984 336.052 665.042 336.438 665.156C336.828 665.266 337.182 665.419 337.5 665.617L337.602 665.227H340.328V672.992ZM337.516 671.234V667.258C337.354 667.19 337.156 667.138 336.922 667.102C336.688 667.06 336.477 667.039 336.289 667.039C335.549 667.039 334.995 667.253 334.625 667.68C334.255 668.102 334.07 668.693 334.07 669.453C334.07 670.297 334.227 670.885 334.539 671.219C334.857 671.552 335.326 671.719 335.945 671.719C336.227 671.719 336.503 671.674 336.773 671.586C337.044 671.497 337.292 671.38 337.516 671.234ZM350.609 671.219C350.609 672.125 350.203 672.857 349.391 673.414C348.578 673.966 347.466 674.242 346.055 674.242C345.273 674.242 344.565 674.169 343.93 674.023C343.294 673.878 342.784 673.716 342.398 673.539V671.227H342.656C342.797 671.326 342.958 671.435 343.141 671.555C343.328 671.669 343.591 671.794 343.93 671.93C344.221 672.049 344.552 672.154 344.922 672.242C345.292 672.326 345.688 672.367 346.109 672.367C346.661 672.367 347.07 672.307 347.336 672.188C347.602 672.062 347.734 671.88 347.734 671.641C347.734 671.427 347.656 671.273 347.5 671.18C347.344 671.081 347.047 670.987 346.609 670.898C346.401 670.852 346.117 670.802 345.758 670.75C345.404 670.693 345.081 670.625 344.789 670.547C343.992 670.339 343.401 670.016 343.016 669.578C342.63 669.135 342.438 668.586 342.438 667.93C342.438 667.086 342.836 666.385 343.633 665.828C344.435 665.266 345.529 664.984 346.914 664.984C347.57 664.984 348.198 665.052 348.797 665.188C349.401 665.318 349.872 665.458 350.211 665.609V667.828H349.969C349.552 667.542 349.076 667.31 348.539 667.133C348.008 666.951 347.469 666.859 346.922 666.859C346.469 666.859 346.086 666.922 345.773 667.047C345.466 667.172 345.312 667.349 345.312 667.578C345.312 667.786 345.383 667.945 345.523 668.055C345.664 668.164 345.995 668.273 346.516 668.383C346.802 668.44 347.109 668.497 347.438 668.555C347.771 668.607 348.104 668.674 348.438 668.758C349.177 668.951 349.724 669.255 350.078 669.672C350.432 670.083 350.609 670.599 350.609 671.219Z" fill="#1F1F1F"/>
<rect x="224.5" y="537.5" width="180" height="173" rx="18.5" stroke="#CFDCF1" stroke-width="3"/>
<rect x="179" y="922" width="72" height="2" rx="1" fill="#1F1F1F"/>
</g>
<defs>
<filter id="filter0_d_1451_18220" x="0" y="151" width="430" height="201" filterUnits="userSpaceOnUse" color-interpolation-filters="sRGB">
<feFlood flood-opacity="0" result="BackgroundImageFix"/>
<feColorMatrix in="SourceAlpha" type="matrix" values="0 0 0 0 0 0 0 0 0 0 0 0 0 0 0 0 0 0 127 0" result="hardAlpha"/>
<feOffset dy="8"/>
<feGaussianBlur stdDeviation="12"/>
<feComposite in2="hardAlpha" operator="out"/>
<feColorMatrix type="matrix" values="0 0 0 0 0.845833 0 0 0 0 0.505007 0 0 0 0 0.415868 0 0 0 0.2 0"/>
<feBlend mode="normal" in2="BackgroundImageFix" result="effect1_dropShadow_1451_18220"/>
<feBlend mode="normal" in="SourceGraphic" in2="effect1_dropShadow_1451_18220" result="shape"/>
</filter>
<clipPath id="clip0_1451_18220">
<rect width="430" height="932" fill="white"/>
</clipPath>
</defs>
</svg>
