<svg width="48" height="40" viewBox="0 0 48 40" fill="none" xmlns="http://www.w3.org/2000/svg">
<g filter="url(#filter0_b_301_8)">
<path fill-rule="evenodd" clip-rule="evenodd" d="M47.6417 23.7585L47.5812 23.9777L47.5164 24.1956L47.4475 24.4123L47.3746 24.6276L47.2978 24.8415L47.2173 25.0539L47.1331 25.2649L47.0456 25.4743L46.9547 25.6822L46.8608 25.8884L46.7639 26.0931L46.6642 26.2961L46.5618 26.4975L46.4571 26.6973L46.35 26.8954L46.2407 27.0919L46.1295 27.2867L46.0164 27.48L45.9017 27.6717L45.7854 27.8618L45.6676 28.0503L45.5486 28.2374L45.4285 28.4231L45.3073 28.6073L45.1852 28.7901L45.0622 28.9715L44.9385 29.1517L44.8141 29.3307L44.6891 29.5084L44.5636 29.685L44.4377 29.8605L44.3113 30.035L44.1846 30.2085L44.0576 30.381L43.9302 30.5526L43.8026 30.7233L43.6747 30.8932L43.5466 31.0624L43.4182 31.2308L43.2896 31.3986L43.1607 31.5657L43.0315 31.7322L42.9021 31.8981L42.7724 32.0635L42.6423 32.2284L42.512 32.3929L42.3813 32.5569L42.2502 32.7206L42.1186 32.8838L41.9866 33.0467L41.854 33.2092L41.7207 33.3713L41.5868 33.5331L41.452 33.6945L41.3164 33.8554L41.1797 34.0159L41.042 34.176L40.9031 34.3355L40.7629 34.4944L40.6213 34.6527L40.4783 34.8103L40.3336 34.9671L40.1873 35.1231L40.0391 35.2781L39.8891 35.4321L39.7371 35.5851L39.583 35.7368L39.4268 35.8873L39.2683 36.0363L39.1075 36.1839L38.9444 36.3298L38.7788 36.474L38.6108 36.6164L38.4402 36.7568L38.267 36.8952L38.0913 37.0315L37.913 37.1655L37.732 37.2971L37.5484 37.4262L37.3621 37.5528L37.1733 37.6767L36.9819 37.7978L36.7879 37.9161L36.5913 38.0315L36.3923 38.1439L36.1909 38.2533L35.9871 38.3595L35.781 38.4625L35.5726 38.5623L35.3621 38.6588L35.1495 38.752L34.9349 38.8419L34.7185 38.9285L34.5002 39.0116L34.2801 39.0913L34.0584 39.1676L33.8351 39.2404L33.6104 39.3098L33.3843 39.3757L33.1569 39.4381L32.9283 39.497L32.6986 39.5525L32.468 39.6046L32.2364 39.6533L32.004 39.6985L31.7709 39.7404L31.5371 39.7789L31.3029 39.8141L31.0682 39.8461L30.8331 39.8749L30.5978 39.9005L30.3623 39.9231L30.1268 39.9426L29.8912 39.9591L29.6556 39.9728L29.4202 39.9836L29.185 39.9916L28.95 39.997L28.7154 39.9998L28.4811 40L28.2473 39.9978L28.014 39.9932L27.7812 39.9863L27.5489 39.9772L27.3173 39.966L27.0862 39.9527L26.8559 39.9374L26.6262 39.9202L26.3972 39.9012L26.1689 39.8804L25.9414 39.8579L25.7146 39.8337L25.4885 39.808L25.2632 39.7808L25.0386 39.7522L24.8148 39.7221L24.5917 39.6907L24.3693 39.658L24.1477 39.624L23.9267 39.5888L23.7065 39.5524L23.4869 39.5148L23.268 39.476L23.0497 39.4361L22.8321 39.3951L22.6151 39.353L22.3988 39.3097L22.183 39.2654L21.9678 39.2198L21.7532 39.1732L21.5392 39.1254L21.3258 39.0765L21.1129 39.0263L20.9006 38.975L20.6888 38.9224L20.4776 38.8686L20.267 38.8134L20.057 38.757L19.8475 38.6992L19.6387 38.6401L19.4304 38.5795L19.2228 38.5176L19.0158 38.4541L18.8095 38.3891L18.6039 38.3227L18.3989 38.2546L18.1947 38.185L17.9912 38.1138L17.7885 38.041L17.5866 37.9665L17.3855 37.8904L17.1852 37.8126L16.9858 37.7332L16.7873 37.652L16.5897 37.5692L16.393 37.4847L16.1972 37.3985L16.0024 37.3106L15.8085 37.2211L15.6156 37.13L15.4236 37.0372L15.2326 36.9428L15.0426 36.8469L14.8534 36.7495L14.6652 36.6506L14.4778 36.5504L14.2912 36.4487L14.1053 36.3458L13.9202 36.2417L13.7357 36.1363L13.5517 36.0299L13.3683 35.9225L13.1852 35.814L13.0024 35.7046L12.8198 35.5944L12.6373 35.4833L12.4549 35.3715L12.2723 35.259L12.0895 35.1458L11.9063 35.032L11.7227 34.9176L11.5385 34.8027L11.3536 34.6871L11.1679 34.5711L10.9814 34.4545L10.7938 34.3373L10.605 34.2196L10.4151 34.1014L10.2238 33.9825L10.0312 33.8631L9.83709 33.7429L9.64147 33.622L9.44426 33.5003L9.24543 33.3778L9.04496 33.2543L8.84283 33.1298L8.63905 33.0042L8.43362 32.8774L8.22659 32.7492L8.01799 32.6197L7.80791 32.4886L7.59642 32.3558L7.38363 32.2213L7.16966 32.0848L6.95464 31.9464L6.7387 31.8058L6.52203 31.6629L6.30478 31.5177L6.08714 31.37L5.86931 31.2196L5.65151 31.0666L5.43395 30.9107L5.21687 30.752L5.00051 30.5903L4.78514 30.4254L4.571 30.2575L4.35838 30.0863L4.14755 29.9118L3.93879 29.734L3.73241 29.5528L3.52868 29.3682L3.32792 29.1802L3.13042 28.9887L2.93649 28.7938L2.74643 28.5955L2.56053 28.3937L2.3791 28.1885L2.20244 27.98L2.03084 27.7682L1.86458 27.5532L1.70394 27.3349L1.5492 27.1136L1.40061 26.8894L1.25844 26.6622L1.12292 26.4322L0.994277 26.1996L0.872737 25.9644L0.758498 25.7268L0.651751 25.487L0.552667 25.2451L0.461403 25.0012L0.378099 24.7556L0.302877 24.5083L0.23584 24.2596L0.177075 24.0096L0.126648 23.7585L0.0846053 23.5065L0.050972 23.2538L0.0257428 23.0005L0.00888361 22.7468L0.000332447 22.4929L0 22.239L0.00777086 21.9852L0.0235046 21.7317L0.0470372 21.4786L0.078182 21.2262L0.116732 20.9744L0.162459 20.7235L0.215119 20.4736L0.274451 20.2247L0.340178 19.977L0.412011 19.7306L0.489651 19.4854L0.572788 19.2416L0.661105 18.9992L0.754278 18.7582L0.85198 18.5187L0.953884 18.2806L1.05966 18.0439L1.16898 17.8087L1.28152 17.5748L1.39696 17.3422L1.51499 17.111L1.63531 16.8809L1.75763 16.6519L1.88165 16.424L2.00712 16.197L2.13379 15.9709L2.26142 15.7454L2.38978 15.5206L2.51869 15.2963L2.64797 15.0724L2.77745 14.8487L2.907 14.6251L3.03652 14.4015L3.1659 14.1779L3.2951 13.954L3.42406 13.7298L3.55278 13.5051L3.68127 13.28L3.80957 13.0543L3.93773 12.8279L4.06582 12.6007L4.19394 12.3728L4.32217 12.1441L4.45064 11.9145L4.57946 11.684L4.70875 11.4526L4.83867 11.2203L4.96936 10.987L5.10098 10.7529L5.23369 10.5178L5.36767 10.2819L5.50308 10.0452L5.64012 9.80772L5.77896 9.56955L5.91979 9.33075L6.06281 9.09142L6.20819 8.85165L6.35613 8.61155L6.50681 8.37124L6.66043 8.13084L6.81715 7.89049L6.97717 7.65034L7.14065 7.41053L7.30777 7.17124L7.47868 6.93264L7.65354 6.6949L7.83249 6.4582L8.01569 6.22274L8.20324 5.98871L8.39529 5.75632L8.59193 5.52577L8.79326 5.29726L8.99938 5.07101L9.21035 4.84724L9.42626 4.62615L9.64714 4.40797L9.87304 4.19291L10.104 3.98119L10.34 3.77301L10.5811 3.5686L10.8272 3.36816L11.0784 3.1719L11.3345 2.98001L11.5957 2.79271L11.8617 2.61017L12.1325 2.43259L12.4081 2.26015L12.6884 2.09303L12.9732 1.9314L13.2624 1.77543L13.556 1.62527L13.8538 1.48108L14.1556 1.34299L14.4613 1.21114L14.7708 1.08566L15.0838 0.966655L15.4003 0.854243L15.72 0.748519L16.0428 0.649569L16.3684 0.557471L16.6966 0.472292L17.0274 0.394089L17.3604 0.322908L17.6954 0.258785L18.0323 0.201744L18.3708 0.151802L18.7107 0.108962L19.0519 0.0732166L19.394 0.0445508L19.7369 0.0229373L20.0804 0.00833998L20.4242 0.000712636L20.7681 0L21.112 0.00613781L21.4556 0.0190532L21.7987 0.0386652L22.1411 0.064885L22.4827 0.0976166L22.8232 0.136757L23.1625 0.182198L23.5004 0.233823L23.8366 0.291514L24.1711 0.355145L24.5037 0.42459L24.8343 0.499714L25.1626 0.580385L25.4885 0.666466L25.812 0.757819L26.1328 0.854299L26.4509 0.955757L26.7661 1.06203L27.0784 1.17296L27.3876 1.28838L27.6936 1.4081L27.9964 1.53195L28.2959 1.65973L28.592 1.79127L28.8847 1.92635L29.174 2.06479L29.4597 2.20639L29.7419 2.35093L30.0205 2.49823L30.2956 2.64807L30.5672 2.80025L30.8352 2.95457L31.0997 3.11082L31.3607 3.26881L31.6183 3.42834L31.8726 3.58922L32.1235 3.75125L32.3711 3.91425L32.6156 4.07805L32.857 4.24247L33.0953 4.40734L33.3308 4.57251L33.5634 4.73783L33.7934 4.90315L34.0208 5.06834L34.2456 5.23327L34.4681 5.39783L34.6884 5.56192L34.9066 5.72544L35.1227 5.88832L35.337 6.05046L35.5495 6.21183L35.7604 6.37236L35.9698 6.53202L36.1777 6.69079L36.3843 6.84864L36.5898 7.00557L36.7941 7.16159L36.9974 7.31673L37.1998 7.471L37.4013 7.62444L37.6021 7.77708L37.8021 7.92896L38.0016 8.08012L38.2005 8.2306L38.3989 8.38045L38.5969 8.52973L38.7946 8.67848L38.9919 8.82677L39.189 8.97466L39.3858 9.12223L39.5824 9.26955L39.7789 9.4167L39.9752 9.56376L40.1713 9.71082L40.3672 9.85797L40.563 10.0053L40.7585 10.1529L40.9538 10.3009L41.1489 10.4494L41.3436 10.5985L41.5378 10.7483L41.7317 10.899L41.9249 11.0505L42.1175 11.2031L42.3093 11.3568L42.5003 11.5117L42.6902 11.668L42.8791 11.8257L43.0667 11.985L43.2528 12.1459L43.4375 12.3085L43.6204 12.4729L43.8015 12.6392L43.9805 12.8075L44.1574 12.9777L44.3319 13.15L44.504 13.3244L44.6733 13.5009L44.8399 13.6796L45.0035 13.8604L45.164 14.0435L45.3213 14.2288L45.4752 14.4162L45.6256 14.6058L45.7724 14.7976L45.9154 14.9915L46.0546 15.1875L46.1898 15.3856L46.3209 15.5857L46.4477 15.7878L46.5702 15.9919L46.6883 16.1979L46.8018 16.4057L46.9106 16.6153L47.0147 16.8267L47.1139 17.0397L47.2081 17.2543L47.2973 17.4704L47.3814 17.6879L47.4604 17.9068L47.5341 18.1269L47.6025 18.3483L47.6655 18.5707L47.7232 18.7941L47.7754 19.0184L47.8222 19.2435L47.8635 19.4693L47.8994 19.6957L47.9298 19.9226L47.9547 20.1498L47.9741 20.3774L47.9882 20.6052L47.9968 20.833L48 21.0608L47.9979 21.2885L47.9905 21.516L47.9779 21.7432L47.9602 21.97L47.9373 22.1962L47.9094 22.4219L47.8766 22.6468L47.839 22.871L47.7966 23.0944L47.7495 23.3168L47.6978 23.5382L47.6417 23.7585Z" fill="#EFE2D2"/>
</g>
<path d="M19.3333 24.6667V18.8333M31 17.1667V23.8333C31 24.9384 30.561 25.9982 29.7796 26.7796C28.9982 27.561 27.9384 28 26.8333 28H20.1667C19.0616 28 18.0018 27.561 17.2204 26.7796C16.439 25.9982 16 24.9384 16 23.8333V17.1667C16 16.0616 16.439 15.0018 17.2204 14.2204C18.0018 13.439 19.0616 13 20.1667 13H26.8333C27.9384 13 28.9982 13.439 29.7796 14.2204C30.561 15.0018 31 16.0616 31 17.1667Z" stroke="black" stroke-width="1.25" stroke-linecap="round" stroke-linejoin="round"/>
<path d="M22.6666 24.6667V21.9584M22.6666 21.9584V18.8334M22.6666 21.9584C22.6666 18.8334 27.6666 18.8334 27.6666 21.9584V24.6667M19.3333 16.3417L19.3416 16.3325" stroke="black" stroke-width="1.25" stroke-linecap="round" stroke-linejoin="round"/>
<defs>
<filter id="filter0_b_301_8" x="-4" y="-4" width="56" height="48" filterUnits="userSpaceOnUse" color-interpolation-filters="sRGB">
<feFlood flood-opacity="0" result="BackgroundImageFix"/>
<feGaussianBlur in="BackgroundImageFix" stdDeviation="2"/>
<feComposite in2="SourceAlpha" operator="in" result="effect1_backgroundBlur_301_8"/>
<feBlend mode="normal" in="SourceGraphic" in2="effect1_backgroundBlur_301_8" result="shape"/>
</filter>
</defs>
</svg>
